<svg xmlns="http://www.w3.org/2000/svg" xmlns:xlink="http://www.w3.org/1999/xlink" version="1.1" width="1000" height="1000" viewBox="0 0 1000 1000" xml:space="preserve">
<desc>Created with Fabric.js 3.5.0</desc>
<defs>
</defs>
<rect x="0" y="0" width="100%" height="100%" fill="#ffffff"/>
<g transform="matrix(3.8173 0 0 3.8173 499.9986 499.9986)" id="670048">
<g style="" vector-effect="non-scaling-stroke">
		<g transform="matrix(1 0 0 1 0 0)" id="SvgjsG1080">
<rect style="stroke: none; stroke-width: 1; stroke-dasharray: none; stroke-linecap: butt; stroke-dashoffset: 0; stroke-linejoin: miter; stroke-miterlimit: 4; is-custom-font: none; font-file-url: none; fill: rgb(13,165,116); fill-rule: nonzero; opacity: 1;" x="-144" y="-144" rx="0" ry="0" width="288" height="288"/>
</g>
		<g transform="matrix(2.0934 0 0 2.0934 -7.2225 -9.1382)" id="SvgjsG1080">
<path style="stroke: none; stroke-width: 1; stroke-dasharray: none; stroke-linecap: butt; stroke-dashoffset: 0; stroke-linejoin: miter; stroke-miterlimit: 4; is-custom-font: none; font-file-url: none; fill: rgb(246,250,255); fill-rule: nonzero; opacity: 1;" transform=" translate(-28.55, -27.75)" d="M 48.5 45.7 H 18.2 c -0.5 0 -0.9 -0.2 -1.1 -0.6 c -0.3 -0.4 -0.3 -0.9 -0.1 -1.3 l 2.6 -6.6 L 17 12.6 H 8.6 V 9.8 h 9.6 c 0.7 0 1.3 0.5 1.4 1.2 l 2.8 26.1 c 0 0.2 0 0.4 -0.1 0.7 l -2 5 h 28.2 v 2.9" stroke-linecap="round"/>
</g>
		<g transform="matrix(2.0934 0 0 2.0934 2.9306 5.411)" id="SvgjsG1080">
<path style="stroke: none; stroke-width: 1; stroke-dasharray: none; stroke-linecap: butt; stroke-dashoffset: 0; stroke-linejoin: miter; stroke-miterlimit: 4; is-custom-font: none; font-file-url: none; fill: rgb(246,250,255); fill-rule: nonzero; opacity: 1;" transform=" translate(-33.4, -34.7)" d="m 21.3 38.8 l -0.6 -2.7 l 31.9 -6.6 V 18.2 h -33 v -2.8 H 54 c 0.8 0 1.4 0.6 1.4 1.4 v 13.8 c 0 0.7 -0.5 1.2 -1.1 1.3 l -33 6.9 M 49.9 54 c -3 0 -5.5 -2.5 -5.5 -5.5 s 2.5 -5.5 5.5 -5.5 s 5.5 2.5 5.5 5.5 s -2.5 5.5 -5.5 5.5 z m 0 -8.3 c -1.5 0 -2.8 1.2 -2.8 2.8 s 1.2 2.8 2.8 2.8 s 2.8 -1.2 2.8 -2.8 s -1.3 -2.8 -2.8 -2.8 z m -33 8.3 c -3 0 -5.5 -2.5 -5.5 -5.5 s 2.5 -5.5 5.5 -5.5 s 5.5 2.5 5.5 5.5 s -2.5 5.5 -5.5 5.5 z m 0 -8.3 c -1.5 0 -2.8 1.2 -2.8 2.8 s 1.2 2.8 2.8 2.8 s 2.8 -1.2 2.8 -2.8 s -1.3 -2.8 -2.8 -2.8 z" stroke-linecap="round"/>
</g>
</g>
</g>
</svg>