<svg xmlns="http://www.w3.org/2000/svg" xmlns:xlink="http://www.w3.org/1999/xlink" version="1.1" width="1000" height="1000" viewBox="0 0 1000 1000" xml:space="preserve">
<desc>Created with Fabric.js 3.5.0</desc>
<defs>
</defs>
<rect x="0" y="0" width="100%" height="100%" fill="#ffffff"/>
<g transform="matrix(3.4722 0 0 3.4722 499.9968 499.9968)" id="681896">
<g style="" vector-effect="non-scaling-stroke">
		<g transform="matrix(1 0 0 1 0 0)" id="SvgjsRect1032">
<rect style="stroke: none; stroke-width: 1; stroke-dasharray: none; stroke-linecap: butt; stroke-dashoffset: 0; stroke-linejoin: miter; stroke-miterlimit: 4; is-custom-font: none; font-file-url: none; fill: rgb(102,204,255); fill-rule: nonzero; opacity: 1;" x="-144" y="-144" rx="0" ry="0" width="288" height="288"/>
</g>
		<g transform="matrix(2.745 0 0 2.745 0 0.1755)" id="SvgjsG1022">
<path style="stroke: none; stroke-width: 1; stroke-dasharray: none; stroke-linecap: butt; stroke-dashoffset: 0; stroke-linejoin: miter; stroke-miterlimit: 4; is-custom-font: none; font-file-url: none; fill: rgb(255,255,255); fill-rule: nonzero; opacity: 1;" transform=" translate(-32, -32)" d="M 32 43.3 c -6.2 0 -11.3 -5.1 -11.3 -11.3 S 25.8 20.7 32 20.7 S 43.3 25.8 43.3 32 S 38.2 43.3 32 43.3 z m 0 -20.2 c -4.9 0 -8.9 4 -8.9 8.9 s 4 8.9 8.9 8.9 s 8.9 -4 8.9 -8.9 s -4 -8.9 -8.9 -8.9 z" stroke-linecap="round"/>
</g>
		<g transform="matrix(2.745 0 0 2.745 0 0.45)" id="SvgjsG1022">
<path style="stroke: none; stroke-width: 1; stroke-dasharray: none; stroke-linecap: butt; stroke-dashoffset: 0; stroke-linejoin: miter; stroke-miterlimit: 4; is-custom-font: none; font-file-url: none; fill: rgb(255,255,255); fill-rule: nonzero; opacity: 1;" transform=" translate(-32, -32.1)" d="M 35.4 55.9 h -6.8 l -1.9 -5.8 c -1.3 -0.4 -2.5 -0.9 -3.7 -1.5 l -5.5 2.8 l -4.8 -4.8 l 2.8 -5.5 c -0.6 -1.2 -1.2 -2.4 -1.5 -3.7 l -5.8 -1.9 v -6.8 l 5.8 -1.9 c 0.4 -1.3 0.9 -2.5 1.5 -3.7 l -2.8 -5.5 l 4.8 -4.8 l 5.5 2.8 c 1.2 -0.6 2.4 -1.2 3.7 -1.5 l 1.9 -5.8 h 6.8 l 1.9 5.8 c 1.3 0.4 2.5 0.9 3.7 1.5 l 5.5 -2.8 l 4.8 4.8 l -2.8 5.5 c 0.6 1.2 1.2 2.4 1.5 3.7 l 5.8 1.9 v 6.8 L 50 37.4 c -0.4 1.3 -0.9 2.5 -1.5 3.7 l 2.8 5.5 l -4.8 4.8 l -5.5 -2.8 c -1.2 0.6 -2.4 1.2 -3.7 1.5 l -1.9 5.8 z m -5.1 -2.3 h 3.4 l 1.8 -5.4 l 0.6 -0.2 c 1.5 -0.4 2.9 -1 4.3 -1.8 l 0.6 -0.3 l 5.1 2.6 l 2.4 -2.4 l -2.6 -5.1 l 0.3 -0.6 c 0.8 -1.3 1.4 -2.8 1.8 -4.3 l 0.2 -0.6 l 5.4 -1.8 v -3.4 l -5.4 -1.8 l -0.2 -0.6 c -0.4 -1.5 -1 -3 -1.8 -4.3 l -0.3 -0.6 l 2.6 -5.1 l -2.4 -2.4 l -5.1 2.6 l -0.6 -0.3 c -1.3 -0.8 -2.8 -1.4 -4.3 -1.8 l -0.6 -0.2 l -1.8 -5.4 h -3.4 l -1.8 5.4 l -0.6 0.2 c -1.5 0.4 -2.9 1 -4.3 1.8 l -0.6 0.3 l -5.1 -2.6 l -2.4 2.4 l 2.6 5.1 l -0.3 0.6 c -0.8 1.3 -1.4 2.8 -1.8 4.3 l -0.2 0.6 l -5.4 1.8 v 3.4 l 5.4 1.8 l 0.2 0.6 c 0.4 1.5 1 3 1.8 4.3 l 0.3 0.6 l -2.6 5.1 l 2.4 2.4 l 5.1 -2.6 l 0.6 0.3 c 1.3 0.8 2.8 1.4 4.3 1.8 l 0.6 0.2 l 1.8 5.4 z" stroke-linecap="round"/>
</g>
</g>
</g>
</svg>