<svg xmlns="http://www.w3.org/2000/svg" xmlns:xlink="http://www.w3.org/1999/xlink" version="1.1" width="1000" height="1000" viewBox="0 0 1000 1000" xml:space="preserve">
<desc>Created with Fabric.js 3.5.0</desc>
<defs>
</defs>
<rect x="0" y="0" width="100%" height="100%" fill="#ffffff"/>
<g transform="matrix(0.8816 0 0 0.8816 500.0123 500.0123)" id="735843">
<g style="" vector-effect="non-scaling-stroke">
		<g transform="matrix(1 0 0 1 -1.4489 -4.4266)">
<path style="stroke: none; stroke-width: 1; stroke-dasharray: none; stroke-linecap: butt; stroke-dashoffset: 0; stroke-linejoin: miter; stroke-miterlimit: 4; is-custom-font: none; font-file-url: none; fill: rgb(217,75,62); fill-rule: nonzero; opacity: 1;" transform=" translate(-590.6422, -632.6998)" d="M 0 0 C 1.26 0 1.26 0 2.54 0 C 5.36 -0.01 8.18 -0.01 11 0 C 13.04 0 15.09 -0.01 17.13 -0.01 C 22.78 -0.01 28.43 -0.01 34.08 -0.01 C 40.22 -0.01 46.36 -0.01 52.49 -0.01 C 63.26 -0.02 74.02 -0.02 84.79 -0.02 C 96.34 -0.02 107.9 -0.02 119.45 -0.02 C 120.18 -0.02 120.91 -0.02 121.66 -0.02 C 124.63 -0.02 127.6 -0.03 130.57 -0.03 C 161.57 -0.04 192.57 -0.04 223.57 -0.04 C 226.9 -0.04 230.24 -0.04 233.58 -0.04 C 234.82 -0.04 234.82 -0.04 236.09 -0.04 C 254.43 -0.04 272.78 -0.04 291.13 -0.05 C 298.68 -0.05 306.23 -0.05 313.78 -0.05 C 314.62 -0.05 315.45 -0.05 316.31 -0.05 C 364.13 -0.06 411.95 -0.06 459.77 -0.06 C 461.56 -0.06 463.35 -0.06 465.14 -0.06 C 473.23 -0.06 481.31 -0.06 489.39 -0.06 C 492.99 -0.06 496.6 -0.06 500.2 -0.06 C 502.01 -0.06 503.81 -0.06 505.61 -0.06 C 562.66 -0.06 619.71 -0.07 676.75 -0.08 C 691.13 -0.08 705.5 -0.09 719.87 -0.09 C 720.76 -0.09 721.64 -0.09 722.55 -0.09 C 749.82 -0.1 777.1 -0.1 804.37 -0.1 C 805.65 -0.1 805.65 -0.1 806.96 -0.1 C 825.75 -0.1 844.54 -0.1 863.33 -0.1 C 870.06 -0.1 876.78 -0.1 883.5 -0.1 C 885.18 -0.1 886.85 -0.1 888.52 -0.1 C 915.19 -0.1 941.85 -0.11 968.52 -0.12 C 995.37 -0.12 1022.23 -0.13 1049.08 -0.12 C 1052.79 -0.12 1056.5 -0.12 1060.21 -0.12 C 1060.93 -0.12 1061.66 -0.12 1062.41 -0.12 C 1073.93 -0.12 1085.45 -0.12 1096.97 -0.13 C 1108.3 -0.13 1119.62 -0.13 1130.95 -0.13 C 1137.01 -0.12 1143.07 -0.12 1149.13 -0.13 C 1154.64 -0.14 1160.15 -0.13 1165.66 -0.13 C 1167.64 -0.12 1169.62 -0.12 1171.61 -0.13 C 1196.5 -0.19 1196.5 -0.19 1204.07 5.91 C 1205.7 7.28 1205.7 7.28 1208.22 8.56 C 1210.76 10.24 1212.48 12.14 1214.33 14.54 C 1215.74 16.37 1215.74 16.37 1218.22 18.75 C 1225.79 28.09 1224.01 42.98 1223.97 54.26 C 1223.97 56.32 1223.98 58.37 1223.98 60.42 C 1223.99 66.06 1223.99 71.7 1223.98 77.34 C 1223.97 83.48 1223.98 89.61 1223.99 95.75 C 1224 106.5 1224 117.26 1223.99 128.01 C 1223.98 139.55 1223.98 151.09 1223.99 162.63 C 1223.99 163.36 1223.99 164.09 1223.99 164.84 C 1223.99 167.81 1223.99 170.78 1223.99 173.75 C 1224.01 201.4 1224.01 229.05 1224 256.71 C 1224 257.53 1224 258.35 1224 259.19 C 1224 260.01 1224 260.83 1224 261.68 C 1223.99 286.67 1223.99 311.67 1223.99 336.66 C 1223.99 338.33 1223.99 340.01 1223.99 341.68 C 1223.99 348.41 1224 355.13 1224 361.86 C 1224 380.66 1224 399.46 1224 418.26 C 1224 419.12 1224 419.97 1224 420.85 C 1224 448.14 1224 475.42 1223.99 502.7 C 1223.99 503.58 1223.99 504.47 1223.99 505.38 C 1223.99 519.75 1223.99 534.12 1223.98 548.49 C 1223.97 605.48 1223.97 662.47 1223.98 719.47 C 1223.99 733.83 1223.99 748.19 1223.99 762.55 C 1223.99 763.88 1223.99 763.88 1223.99 765.23 C 1224 792.49 1224 819.74 1224 846.99 C 1224 848.28 1224 848.28 1224 849.59 C 1224 868.37 1224 887.15 1224 905.93 C 1223.99 912.65 1223.99 919.36 1223.99 926.08 C 1223.99 927.76 1223.99 929.43 1223.99 931.1 C 1223.99 956.09 1223.99 981.07 1224 1006.06 C 1224 1007.29 1224 1007.29 1224 1008.55 C 1224 1009.36 1224 1010.18 1224 1011.02 C 1224.01 1038.6 1224.01 1066.17 1223.99 1093.74 C 1223.99 1096.7 1223.99 1099.67 1223.99 1102.63 C 1223.98 1103.35 1223.98 1104.08 1223.98 1104.83 C 1223.98 1116.33 1223.98 1127.84 1223.99 1139.35 C 1224 1150.66 1224 1161.98 1223.98 1173.29 C 1223.97 1179.34 1223.97 1185.39 1223.98 1191.45 C 1223.99 1196.95 1223.99 1202.46 1223.97 1207.96 C 1223.97 1209.94 1223.97 1211.92 1223.98 1213.9 C 1224.08 1240.72 1224.08 1240.72 1216.4 1248.61 C 1213.65 1250.91 1210.71 1252.83 1207.67 1254.71 C 1205.36 1256.14 1205.36 1256.14 1203.28 1258.94 C 1199.47 1262.04 1196.03 1261.73 1191.24 1261.79 C 1190.36 1261.9 1189.49 1262.01 1188.59 1262.13 C 1187.93 1263.12 1187.27 1264.11 1186.59 1265.13 C 1183.88 1265.43 1181.41 1265.53 1178.7 1265.5 C 1177.87 1265.51 1177.04 1265.51 1176.18 1265.52 C 1173.36 1265.53 1170.54 1265.51 1167.72 1265.5 C 1165.69 1265.51 1163.65 1265.51 1161.61 1265.52 C 1155.97 1265.53 1150.33 1265.52 1144.68 1265.51 C 1138.56 1265.5 1132.44 1265.51 1126.32 1265.52 C 1115.57 1265.53 1104.83 1265.53 1094.08 1265.52 C 1082.55 1265.52 1071.02 1265.51 1059.48 1265.52 C 1058.76 1265.52 1058.03 1265.52 1057.28 1265.52 C 1054.32 1265.52 1051.35 1265.53 1048.39 1265.53 C 1020.77 1265.54 993.15 1265.54 965.53 1265.54 C 964.71 1265.54 963.89 1265.53 963.05 1265.53 C 962.23 1265.53 961.41 1265.53 960.56 1265.53 C 935.6 1265.53 910.63 1265.52 885.67 1265.53 C 884 1265.53 882.32 1265.53 880.65 1265.53 C 873.94 1265.53 867.23 1265.53 860.52 1265.53 C 841.76 1265.53 823 1265.54 804.24 1265.54 C 803.39 1265.54 802.53 1265.54 801.65 1265.54 C 774.41 1265.54 747.18 1265.53 719.94 1265.53 C 719.05 1265.53 718.17 1265.53 717.26 1265.53 C 702.91 1265.52 688.55 1265.52 674.2 1265.52 C 617.27 1265.5 560.34 1265.5 503.41 1265.52 C 489.07 1265.52 474.72 1265.52 460.38 1265.53 C 459.49 1265.53 458.61 1265.53 457.7 1265.53 C 430.49 1265.54 403.29 1265.54 376.08 1265.54 C 375.23 1265.54 374.37 1265.54 373.49 1265.54 C 354.75 1265.54 336.01 1265.53 317.27 1265.53 C 310.57 1265.53 303.86 1265.53 297.15 1265.53 C 295.49 1265.53 293.82 1265.53 292.15 1265.53 C 267.19 1265.52 242.23 1265.53 217.27 1265.53 C 216.45 1265.53 215.63 1265.54 214.79 1265.54 C 213.97 1265.54 213.15 1265.54 212.31 1265.54 C 184.77 1265.54 157.23 1265.54 129.69 1265.53 C 126.74 1265.52 123.78 1265.52 120.83 1265.52 C 120.11 1265.52 119.38 1265.52 118.63 1265.52 C 107.13 1265.51 95.62 1265.52 84.12 1265.53 C 72.82 1265.53 61.52 1265.53 50.23 1265.52 C 44.18 1265.51 38.13 1265.51 32.08 1265.52 C 26.58 1265.53 21.09 1265.52 15.6 1265.51 C 13.61 1265.51 11.63 1265.51 9.64 1265.52 C 6.96 1265.52 4.29 1265.52 1.61 1265.5 C 0.83 1265.51 0.05 1265.52 -0.75 1265.52 C -5.98 1265.47 -5.98 1265.47 -8.28 1263.63 C -8.66 1263.14 -9.03 1262.64 -9.41 1262.13 C -12.33 1261.38 -15.39 1261.13 -18.41 1261.13 C -17.11 1261.25 -15.81 1261.37 -14.47 1261.5 C -12.26 1261.71 -12.26 1261.71 -10.41 1262.13 C -10.08 1262.79 -9.75 1263.45 -9.41 1264.13 C -14.37 1264.42 -17.44 1264.26 -21.41 1261.13 C -21.41 1260.47 -21.41 1259.81 -21.41 1259.13 C -22.17 1259.06 -22.94 1259 -23.72 1258.94 C -26.41 1258.13 -26.41 1258.13 -28.22 1255.69 C -29.41 1253.13 -29.41 1253.13 -29.41 1251.13 C -30.17 1251.04 -30.93 1250.95 -31.71 1250.86 C -35.78 1249.75 -36.94 1247.56 -39.02 1244.03 C -44.23 1233.14 -42.69 1218.62 -42.66 1206.82 C -42.66 1204.77 -42.67 1202.73 -42.67 1200.68 C -42.68 1195.07 -42.67 1189.45 -42.67 1183.84 C -42.66 1177.72 -42.67 1171.61 -42.67 1165.5 C -42.68 1154.79 -42.68 1144.08 -42.67 1133.37 C -42.67 1121.89 -42.67 1110.4 -42.67 1098.91 C -42.67 1098.19 -42.67 1097.46 -42.67 1096.71 C -42.67 1093.75 -42.67 1090.8 -42.68 1087.84 C -42.69 1060.3 -42.69 1032.77 -42.68 1005.23 C -42.68 1004.41 -42.68 1003.6 -42.68 1002.76 C -42.68 1001.94 -42.68 1001.12 -42.68 1000.28 C -42.68 975.4 -42.67 950.51 -42.68 925.63 C -42.68 923.96 -42.68 922.29 -42.68 920.63 C -42.68 913.93 -42.68 907.23 -42.68 900.53 C -42.68 881.81 -42.68 863.09 -42.68 844.37 C -42.68 843.51 -42.68 842.66 -42.68 841.78 C -42.68 814.62 -42.68 787.46 -42.68 760.29 C -42.68 759.41 -42.68 758.53 -42.68 757.62 C -42.67 743.32 -42.67 729.01 -42.67 714.71 C -42.66 657.96 -42.66 601.21 -42.67 544.46 C -42.67 530.16 -42.67 515.86 -42.68 501.56 C -42.68 500.68 -42.68 499.8 -42.68 498.89 C -42.68 471.75 -42.68 444.61 -42.68 417.48 C -42.68 416.62 -42.68 415.77 -42.68 414.89 C -42.68 396.19 -42.68 377.5 -42.68 358.8 C -42.68 352.11 -42.68 345.41 -42.68 338.72 C -42.68 337.06 -42.68 335.4 -42.68 333.73 C -42.67 308.85 -42.68 283.97 -42.68 259.09 C -42.68 258.27 -42.68 257.46 -42.68 256.62 C -42.68 255.8 -42.68 254.99 -42.68 254.15 C -42.69 226.69 -42.69 199.24 -42.67 171.79 C -42.67 168.84 -42.67 165.89 -42.67 162.95 C -42.67 162.22 -42.67 161.5 -42.67 160.75 C -42.67 149.3 -42.67 137.84 -42.68 126.38 C -42.68 115.12 -42.68 103.85 -42.67 92.59 C -42.66 86.56 -42.66 80.54 -42.67 74.51 C -42.68 69.03 -42.67 63.55 -42.66 58.07 C -42.66 56.1 -42.66 54.13 -42.67 52.15 C -42.72 30.8 -42.72 30.8 -40.41 24.13 C -39.75 23.8 -39.09 23.47 -38.41 23.13 C -37.98 21.79 -37.62 20.43 -37.28 19.06 C -35.48 13.35 -32.16 9.69 -27.41 6.13 C -23.78 4.81 -23.78 4.81 -20.41 4.13 C -18.89 3.35 -18.89 3.35 -17.35 2.56 C -11.8 -0.15 -6.07 -0.02 0 0 Z" stroke-linecap="round"/>
</g>
		<g transform="matrix(1 0 0 1 -132.4316 -5.9623)">
<path style="stroke: none; stroke-width: 1; stroke-dasharray: none; stroke-linecap: butt; stroke-dashoffset: 0; stroke-linejoin: miter; stroke-miterlimit: 4; is-custom-font: none; font-file-url: none; fill: rgb(252,252,252); fill-rule: nonzero; opacity: 1;" transform=" translate(3.705, -220.1275)" d="M 0 0 C 3.41 -0.04 6.81 0.01 10.23 0.09 C 10.9 0.1 11.57 0.1 12.26 0.11 C 31.78 0.37 54.3 3.41 72.1 11.84 C 75.06 13.02 76.19 13.18 79.23 13.03 C 82.98 12.86 85.07 13.98 88.29 15.93 C 90.26 17.11 92.27 18.18 94.31 19.24 C 111.45 28.13 111.45 28.13 118.79 34.21 C 122.03 36.71 125.54 38.36 129.23 40.09 C 129.89 40.42 130.55 40.75 131.23 41.09 C 131.23 41.75 131.23 42.41 131.23 43.09 C 131.81 43.17 132.39 43.24 132.98 43.32 C 135.97 44.34 137.1 45.92 139.1 48.34 C 142.25 52.04 145.39 55.12 149.23 58.09 C 148.18 59.13 148.18 59.13 147.11 60.2 C 145.13 62.17 143.19 64.16 141.25 66.17 C 140.22 67.23 139.19 68.28 138.16 69.34 C 137.65 69.88 137.13 70.42 136.6 70.98 C 133.88 73.75 132.04 75.38 128.23 76.09 C 128.23 77.08 128.23 78.07 128.23 79.09 C 126.78 80.62 126.78 80.62 124.76 82.25 C 120.14 86.11 115.94 90.3 111.73 94.59 C 106.95 99.46 102.12 104.17 96.95 108.61 C 95.43 109.91 93.95 111.25 92.48 112.59 C 90.23 114.09 90.23 114.09 88.34 113.9 C 85.72 112.9 84.16 111.5 82.1 109.59 C 79.37 107.04 79.37 107.04 76.23 105.09 C 76.23 104.43 76.23 103.77 76.23 103.09 C 75.24 103.09 74.25 103.09 73.23 103.09 C 73.23 102.43 73.23 101.77 73.23 101.09 C 72.5 100.8 71.78 100.51 71.04 100.21 C 68.43 99.17 65.83 98.13 63.23 97.09 C 63.23 96.43 63.23 95.77 63.23 95.09 C 62.57 95.09 61.91 95.09 61.23 95.09 C 61.23 94.43 61.23 93.77 61.23 93.09 C 60.37 93.14 60.37 93.14 59.5 93.2 C 54.84 93.36 51.43 93.09 47.14 91.01 C 32.83 84.13 18.15 82.53 2.54 82.65 C 1.35 82.66 1.35 82.66 0.14 82.66 C -21.45 82.77 -39.46 87.44 -58.58 97.64 C -61.73 99.07 -64.38 99.6 -67.77 100.09 C -69.98 101.58 -69.98 101.58 -71.77 103.09 C -72.43 103.09 -73.09 103.09 -73.77 103.09 C -73.77 103.75 -73.77 104.41 -73.77 105.09 C -74.76 105.09 -75.75 105.09 -76.77 105.09 C -77.1 106.08 -77.43 107.07 -77.77 108.09 C -79.59 109.67 -79.59 109.67 -81.9 111.34 C -85.01 113.67 -87.83 116.04 -90.52 118.84 C -92.48 120.87 -93.95 122.2 -96.4 123.65 C -99.72 125.66 -101.48 127.95 -103.77 131.09 C -103.77 132.08 -103.77 133.07 -103.77 134.09 C -105.41 136.31 -107.07 138.41 -108.84 140.53 C -115.26 148.45 -120.55 156.32 -123.77 166.09 C -124.75 167.11 -125.75 168.11 -126.77 169.09 C -128.32 172.36 -129.16 175.53 -129.77 179.09 C -130.43 179.09 -131.09 179.09 -131.77 179.09 C -131.44 180.41 -131.11 181.73 -130.77 183.09 C -131.43 183.09 -132.09 183.09 -132.77 183.09 C -132.44 185.07 -132.11 187.05 -131.77 189.09 C -132.43 189.09 -133.09 189.09 -133.77 189.09 C -134.62 193.07 -135.22 197.06 -135.77 201.09 C -135.44 201.09 -135.11 201.09 -134.77 201.09 C -134.04 209.16 -133.67 217.17 -133.65 225.28 C -133.64 226.1 -133.64 226.93 -133.63 227.78 C -133.64 231.13 -133.71 233.89 -134.77 237.09 C -134.11 237.09 -133.45 237.09 -132.77 237.09 C -133.1 238.74 -133.43 240.39 -133.77 242.09 C -133.11 242.09 -132.45 242.09 -131.77 242.09 C -131.07 245.15 -130.39 248.21 -129.71 251.28 C -129.51 252.14 -129.31 253.01 -129.11 253.9 C -128.11 258.45 -127.81 261.51 -128.77 266.09 C -127.91 268.96 -127.91 268.96 -126.4 271.9 C -125.85 273.03 -125.31 274.16 -124.74 275.32 C -122.21 280.26 -119.47 285.09 -116.67 289.88 C -113.77 294.89 -113.77 294.89 -113.77 297.09 C -112.78 297.42 -111.79 297.75 -110.77 298.09 C -109.37 299.98 -108.05 301.93 -106.77 303.9 C -99.35 314.98 -91.42 323.34 -79.77 330.09 C -73.62 334.19 -73.62 334.19 -71.43 336.52 C -64.82 342.79 -55.1 346.62 -46.77 350.09 C -45.84 350.48 -44.91 350.88 -43.96 351.29 C -38.72 353.37 -34.4 354.52 -28.75 354.13 C -25.76 354.07 -23.43 354.76 -20.77 356.09 C -8.58 357.23 3.62 357.15 15.85 356.78 C 17.13 356.74 18.4 356.71 19.71 356.67 C 20.91 356.63 22.1 356.58 23.33 356.54 C 24.39 356.5 25.46 356.46 26.56 356.42 C 29.45 356.26 29.45 356.26 32.23 354.09 C 34.17 353.56 34.17 353.56 36.35 353.15 C 39.61 352.49 42.61 351.63 45.73 350.46 C 50.36 348.84 54.35 348.86 59.23 349.09 C 59.23 348.43 59.23 347.77 59.23 347.09 C 60.11 346.69 60.99 346.29 61.9 345.88 C 70.35 341.92 77.23 337.33 84.23 331.09 C 84.93 330.49 85.64 329.89 86.37 329.28 C 88.36 327.58 90.3 325.85 92.23 324.09 C 92.94 323.44 93.66 322.79 94.4 322.11 C 103.45 313.52 110.15 302.93 116.23 292.09 C 116.67 291.3 117.11 290.52 117.56 289.71 C 120.61 283.95 122.58 278.14 124.33 271.88 C 125.23 269.09 125.23 269.09 127.23 266.09 C 126.61 266.09 125.99 266.08 125.35 266.08 C 110.27 265.97 95.19 265.87 80.1 265.75 C 72.81 265.7 65.52 265.64 58.23 265.59 C 51.87 265.55 45.51 265.5 39.16 265.45 C 35.79 265.43 32.42 265.4 29.06 265.38 C 25.3 265.36 21.54 265.33 17.79 265.3 C 16.67 265.29 15.55 265.28 14.4 265.28 C 13.38 265.27 12.36 265.26 11.3 265.25 C 9.97 265.24 9.97 265.24 8.61 265.23 C 6.35 265.1 4.39 264.72 2.23 264.09 C 2.33 254.72 2.45 245.35 2.57 235.98 C 2.62 231.63 2.67 227.28 2.72 222.93 C 2.77 218.73 2.82 214.54 2.88 210.34 C 2.9 208.74 2.92 207.13 2.94 205.53 C 2.96 203.29 2.99 201.05 3.02 198.81 C 3.04 197.54 3.05 196.26 3.07 194.94 C 3.23 192.09 3.23 192.09 4.23 191.09 C 3.57 190.43 2.91 189.77 2.23 189.09 C 69.88 189.09 137.53 189.09 207.23 189.09 C 207.23 189.75 207.23 190.41 207.23 191.09 C 207.89 191.42 208.55 191.75 209.23 192.09 C 208.9 193.41 208.57 194.73 208.23 196.09 C 208.89 196.09 209.55 196.09 210.23 196.09 C 212.34 206.5 212.54 216.67 212.49 227.26 C 212.48 230.05 212.49 232.83 212.5 235.62 C 212.5 237.41 212.5 239.2 212.49 240.99 C 212.5 241.82 212.5 242.64 212.5 243.49 C 212.47 248.1 211.92 251.74 210.23 256.09 C 209.99 257.67 209.79 259.25 209.66 260.84 C 209.33 264.89 209.33 264.89 208.23 267.09 C 208.65 270.43 209.26 273.71 209.85 277.02 C 210.47 282.08 207.94 286.54 205.85 291.09 C 204.43 294.35 203.46 297.67 202.48 301.09 C 200.16 308.82 196.78 315.87 193.23 323.09 C 192.83 323.92 192.44 324.75 192.03 325.61 C 190.52 328.73 188.93 331.51 186.91 334.34 C 184.97 336.88 184.97 336.88 185.48 339.34 C 185.72 339.92 185.97 340.49 186.23 341.09 C 186.23 341.75 186.23 342.41 186.23 343.09 C 185.24 343.09 184.25 343.09 183.23 343.09 C 183.04 343.91 182.85 344.72 182.65 345.56 C 180.73 350.31 177.78 353.66 174.48 357.53 C 173.87 358.25 173.26 358.98 172.63 359.72 C 171.43 361.16 170.21 362.59 168.99 364.02 C 167.82 365.39 166.66 366.78 165.51 368.18 C 164.12 369.86 162.68 371.48 161.23 373.09 C 160.57 373.09 159.91 373.09 159.23 373.09 C 159.23 374.08 159.23 375.07 159.23 376.09 C 157.65 377.7 157.65 377.7 155.54 379.4 C 151.95 382.4 149.15 385.45 146.23 389.09 C 142.33 393.45 137.81 396.66 133.07 400.03 C 130.46 401.92 127.93 403.89 125.41 405.9 C 121.52 408.95 117.8 411.67 112.82 412.48 C 109.95 413.16 108.35 414.17 105.98 415.9 C 102.38 418.39 98.9 420.28 94.87 421.96 C 92.14 423.13 89.48 424.41 86.81 425.71 C 80.86 428.57 75.16 430.93 68.71 432.47 C 66.25 433.08 63.92 433.86 61.54 434.71 C 57.43 436.13 53.55 436.7 49.23 437.09 C 49.23 437.75 49.23 438.41 49.23 439.09 C 44.61 438.43 39.99 437.77 35.23 437.09 C 34.9 437.75 34.57 438.41 34.23 439.09 C 14.34 440.43 -5.57 441.06 -25.39 438.59 C -29.05 438.14 -32.68 437.93 -36.37 437.8 C -49.77 437.29 -61.54 433.51 -73.77 428.09 C -75.51 427.35 -77.24 426.61 -78.98 425.88 C -80.87 425.07 -82.76 424.27 -84.65 423.46 C -85.55 423.08 -86.46 422.7 -87.39 422.3 C -91.93 420.36 -96.37 418.33 -100.77 416.09 C -102.23 415.46 -103.69 414.83 -105.15 414.21 C -109.65 412.23 -113.7 409.83 -117.77 407.09 C -118.39 406.68 -119.01 406.26 -119.65 405.84 C -122.37 403.96 -124.72 402.15 -127.02 399.78 C -129.58 397.28 -132.1 395.39 -135.02 393.34 C -141.92 388.41 -147.62 382.67 -153.09 376.21 C -156.08 372.71 -159.4 369.65 -162.84 366.59 C -166.91 362.95 -170.42 359.29 -173.54 354.8 C -175.35 352.29 -177.56 350.24 -179.77 348.09 C -183.77 343.55 -183.77 343.55 -183.77 340.09 C -184.67 339.75 -184.67 339.75 -185.59 339.4 C -191.99 335.56 -194.47 325.46 -196.77 318.73 C -198.07 315.3 -199.83 312.26 -201.66 309.09 C -203.1 306.5 -204.09 303.98 -204.77 301.09 C -204.44 300.1 -204.11 299.11 -203.77 298.09 C -204.08 295.79 -204.08 295.79 -204.71 293.4 C -205 292.19 -205 292.19 -205.3 290.95 C -205.46 290.34 -205.61 289.72 -205.77 289.09 C -206.43 289.09 -207.09 289.09 -207.77 289.09 C -211.02 278.49 -213.89 267.92 -216.12 257.06 C -216.73 254.06 -216.73 254.06 -217.77 251.09 C -218.07 248.78 -218.28 246.47 -218.49 244.15 C -218.67 242.03 -218.67 242.03 -219.77 240.09 C -219.87 238.21 -219.9 236.33 -219.91 234.45 C -219.91 233.29 -219.91 232.14 -219.91 230.95 C -219.91 229.74 -219.9 228.53 -219.9 227.28 C -219.9 226.11 -219.91 224.94 -219.91 223.73 C -219.9 211.74 -218.99 200.08 -216.9 188.28 C -216.66 186.82 -216.66 186.82 -216.41 185.33 C -215.41 179.6 -214 174.47 -211.77 169.09 C -212.43 168.76 -213.09 168.43 -213.77 168.09 C -213.5 167.59 -213.22 167.1 -212.93 166.59 C -210.53 162.08 -209.08 158.28 -208.77 153.09 C -209.1 152.1 -209.43 151.11 -209.77 150.09 C -209.07 147.93 -209.07 147.93 -207.96 145.59 C -207.6 144.82 -207.25 144.04 -206.88 143.25 C -205.77 141.09 -205.77 141.09 -203.77 138.09 C -203.07 136.1 -202.4 134.1 -201.77 132.09 C -201.11 132.09 -200.45 132.09 -199.77 132.09 C -199.69 131.26 -199.6 130.43 -199.51 129.57 C -198.63 125.39 -197 122.1 -195.02 118.34 C -194.67 117.64 -194.31 116.94 -193.94 116.22 C -193.22 114.83 -192.5 113.43 -191.78 112.04 C -190.42 109.4 -189.09 106.75 -187.77 104.09 C -187.11 102.76 -186.44 101.42 -185.77 100.09 C -185.11 100.09 -184.45 100.09 -183.77 100.09 C -183.67 99.5 -183.56 98.92 -183.46 98.32 C -182.67 95.76 -181.62 94.44 -179.84 92.46 C -179.31 91.87 -178.79 91.28 -178.25 90.68 C -177.11 89.46 -175.95 88.27 -174.77 87.09 C -173.91 85.95 -173.05 84.81 -172.21 83.65 C -171.07 82.13 -169.92 80.61 -168.77 79.09 C -168.18 78.29 -167.59 77.5 -166.98 76.68 C -156.77 63.57 -136.5 39.67 -119.77 36.09 C -118.78 35.1 -118.78 35.1 -117.77 34.09 C -116.78 34.09 -115.79 34.09 -114.77 34.09 C -114.77 33.43 -114.77 32.77 -114.77 32.09 C -114.21 31.78 -113.66 31.48 -113.08 31.16 C -110.5 29.74 -107.92 28.32 -105.34 26.9 C -104.02 26.18 -104.02 26.18 -102.67 25.44 C -101.36 24.72 -101.36 24.72 -100.03 23.98 C -99.15 23.51 -98.27 23.03 -97.37 22.54 C -95.66 21.58 -93.96 20.59 -92.28 19.58 C -91.5 19.11 -90.73 18.64 -89.93 18.16 C -89.24 17.74 -88.56 17.32 -87.86 16.88 C -85.16 15.86 -83.55 16.46 -80.77 17.09 C -78.34 16.17 -76.15 15.19 -73.84 14.03 C -50.57 3.16 -25.33 0.6 0 0 Z" stroke-linecap="round"/>
</g>
		<g transform="matrix(1 0 0 1 249.875 -5.315)">
<path style="stroke: none; stroke-width: 1; stroke-dasharray: none; stroke-linecap: butt; stroke-dashoffset: 0; stroke-linejoin: miter; stroke-miterlimit: 4; is-custom-font: none; font-file-url: none; fill: rgb(252,252,252); fill-rule: nonzero; opacity: 1;" transform=" translate(-31.375, -94.685)" d="M 0 0 C 20.79 0 41.58 0 63 0 C 64.05 3.15 64.12 5.36 64.11 8.66 C 64.11 9.83 64.11 10.99 64.11 12.18 C 64.11 13.44 64.1 14.69 64.1 15.98 C 64.1 17.91 64.1 17.91 64.09 19.87 C 64.09 23.28 64.08 26.68 64.07 30.09 C 64.06 33.57 64.05 37.05 64.05 40.53 C 64.04 47.35 64.02 54.18 64 61 C 66.67 62.33 68.75 62.16 71.73 62.21 C 72.94 62.23 74.14 62.25 75.37 62.27 C 76.68 62.28 77.98 62.3 79.32 62.32 C 80.66 62.34 82.01 62.36 83.35 62.38 C 86.88 62.43 90.42 62.48 93.95 62.53 C 97.56 62.58 101.16 62.64 104.77 62.69 C 111.85 62.8 118.92 62.9 126 63 C 127.24 65.48 127.13 67.13 127.13 69.91 C 127.13 70.94 127.14 71.98 127.14 73.05 C 127.13 74.19 127.13 75.33 127.12 76.5 C 127.12 78.26 127.12 78.26 127.12 80.05 C 127.06 90.25 126.84 100.43 126.56 110.62 C 126.54 111.39 126.52 112.15 126.5 112.93 C 126.45 115.09 126.38 117.25 126.32 119.41 C 126.26 121.29 126.26 121.29 126.21 123.19 C 126 126 126 126 125 127 C 123.21 127.08 121.42 127.1 119.63 127.08 C 118.48 127.08 117.33 127.07 116.15 127.06 C 114.9 127.05 113.64 127.04 112.36 127.03 C 109.73 127.01 107.11 127 104.49 126.99 C 100.34 126.97 96.18 126.94 92.03 126.9 C 89.32 126.88 86.62 126.87 83.92 126.86 C 81.37 126.85 78.82 126.83 76.27 126.8 C 75.11 126.8 73.96 126.79 72.76 126.79 C 71.74 126.78 70.73 126.77 69.68 126.77 C 66.95 127 65.32 127.6 63 129 C 63.16 129.55 63.32 130.1 63.49 130.67 C 64.06 133.28 64.13 135.62 64.13 138.29 C 64.13 139.34 64.14 140.4 64.14 141.48 C 64.14 143.18 64.14 143.18 64.13 144.91 C 64.13 146.08 64.13 147.25 64.14 148.45 C 64.14 150.91 64.13 153.37 64.13 155.84 C 64.13 159.62 64.13 163.4 64.14 167.18 C 64.14 169.57 64.13 171.96 64.13 174.35 C 64.13 175.49 64.14 176.62 64.14 177.8 C 64.13 179.37 64.13 179.37 64.13 180.97 C 64.13 181.9 64.13 182.82 64.13 183.77 C 64 186 64 186 63 188 C 59.9 189.03 57.73 189.14 54.47 189.16 C 53.34 189.17 52.21 189.18 51.05 189.19 C 49.21 189.2 49.21 189.2 47.34 189.2 C 46.09 189.21 44.84 189.21 43.54 189.22 C 40.89 189.23 38.24 189.24 35.59 189.24 C 32.19 189.25 28.79 189.27 25.39 189.3 C 22.14 189.32 18.9 189.32 15.66 189.33 C 13.82 189.35 13.82 189.35 11.95 189.37 C 10.26 189.36 10.26 189.36 8.53 189.36 C 7.03 189.36 7.03 189.36 5.5 189.37 C 3 189 3 189 1.18 187.83 C -0.47 185.27 -0.4 183.37 -0.43 180.34 C -0.45 179.17 -0.47 178.01 -0.49 176.82 C -0.5 175.56 -0.51 174.31 -0.51 173.02 C -0.53 171.74 -0.55 170.45 -0.57 169.13 C -0.61 165.72 -0.64 162.32 -0.67 158.91 C -0.7 155.43 -0.75 151.95 -0.79 148.47 C -0.88 141.65 -0.94 134.82 -1 128 C -2.12 127.99 -2.12 127.99 -3.26 127.98 C -10.28 127.92 -17.3 127.85 -24.31 127.76 C -27.92 127.72 -31.53 127.68 -35.14 127.65 C -38.62 127.63 -42.1 127.59 -45.58 127.54 C -47.56 127.51 -49.54 127.5 -51.51 127.49 C -53.31 127.46 -53.31 127.46 -55.15 127.43 C -56.74 127.42 -56.74 127.42 -58.36 127.4 C -61 127 -61 127 -62.84 125.84 C -64.49 123.23 -64.37 121.26 -64.37 118.18 C -64.38 116.99 -64.38 115.79 -64.39 114.56 C -64.38 112.63 -64.38 112.63 -64.36 110.65 C -64.36 109.32 -64.36 107.98 -64.36 106.64 C -64.36 103.85 -64.35 101.05 -64.34 98.25 C -64.31 94.66 -64.31 91.07 -64.32 87.48 C -64.32 84.72 -64.32 81.96 -64.31 79.2 C -64.3 77.24 -64.3 75.27 -64.3 73.3 C -64.29 72.11 -64.28 70.91 -64.27 69.69 C -64.27 68.63 -64.27 67.58 -64.26 66.5 C -64 64 -64 64 -62 62 C -59.41 61.8 -59.41 61.8 -56.08 61.86 C -54.19 61.9 -54.19 61.9 -52.27 61.93 C -50.93 61.96 -49.58 61.99 -48.24 62.02 C -47.03 62.05 -45.81 62.07 -44.55 62.09 C -39.99 62.17 -35.43 62.28 -30.88 62.38 C -20.69 62.58 -10.5 62.79 0 63 C 0 42.21 0 21.42 0 0 Z" stroke-linecap="round"/>
</g>
		<g transform="matrix(1 0 0 1 185.805 -5.32)">
<path style="stroke: none; stroke-width: 1; stroke-dasharray: none; stroke-linecap: butt; stroke-dashoffset: 0; stroke-linejoin: miter; stroke-miterlimit: 4; is-custom-font: none; font-file-url: none; fill: rgb(242,210,206); fill-rule: nonzero; opacity: 1;" transform=" translate(-29.305, -32.68)" d="M 0 0 C 0.99 0 1.98 0 3 0 C 3.33 0.99 3.66 1.98 4 3 C 3.01 3.5 3.01 3.5 2 4 C 1.87 11.49 1.79 18.99 1.73 26.48 C 1.7 29.03 1.67 31.58 1.62 34.13 C 1.56 37.79 1.53 41.45 1.51 45.11 C 1.49 46.26 1.46 47.4 1.43 48.58 C 1.43 49.64 1.43 50.7 1.43 51.79 C 1.42 52.73 1.41 53.66 1.4 54.63 C 1.8 57.24 1.8 57.24 4.38 58.81 C 7.27 60.12 9.07 60.34 12.23 60.26 C 13.76 60.24 13.76 60.24 15.32 60.21 C 16.95 60.17 16.95 60.17 18.62 60.12 C 28.48 59.98 38.28 60.1 48.12 60.5 C 49.31 60.55 50.5 60.6 51.72 60.65 C 54.48 60.76 57.24 60.88 60 61 C 60.5 62.98 60.5 62.98 61 65 C 53.23 65.07 45.46 65.12 37.69 65.16 C 34.08 65.17 30.47 65.19 26.86 65.23 C 23.38 65.26 19.9 65.28 16.42 65.28 C 14.44 65.29 12.46 65.32 10.49 65.34 C 9.29 65.34 8.09 65.34 6.85 65.34 C 5.26 65.35 5.26 65.35 3.64 65.36 C 1 65 1 65 -0.84 63.84 C -2.49 61.23 -2.37 59.26 -2.37 56.18 C -2.38 54.99 -2.38 53.79 -2.39 52.56 C -2.38 51.27 -2.37 49.98 -2.36 48.65 C -2.36 47.32 -2.36 45.98 -2.36 44.64 C -2.36 41.85 -2.35 39.05 -2.34 36.25 C -2.31 32.66 -2.31 29.07 -2.32 25.48 C -2.32 22.72 -2.32 19.96 -2.31 17.2 C -2.3 15.24 -2.3 13.27 -2.3 11.3 C -2.29 10.11 -2.28 8.91 -2.27 7.69 C -2.27 6.63 -2.27 5.58 -2.26 4.5 C -2 2 -2 2 0 0 Z" stroke-linecap="round"/>
</g>
		<g transform="matrix(1 0 0 1 -127.185 -0.5)">
<path style="stroke: none; stroke-width: 1; stroke-dasharray: none; stroke-linecap: butt; stroke-dashoffset: 0; stroke-linejoin: miter; stroke-miterlimit: 4; is-custom-font: none; font-file-url: none; fill: rgb(223,122,112); fill-rule: nonzero; opacity: 1;" transform=" translate(-0.315, -36.5)" d="M 0 0 C 1.32 0.66 2.64 1.32 4 2 C 3.67 2.33 3.34 2.66 3 3 C 2.88 5.18 2.82 7.36 2.79 9.54 C 2.78 10.22 2.77 10.91 2.76 11.61 C 2.73 13.88 2.71 16.14 2.68 18.41 C 2.66 19.98 2.64 21.55 2.62 23.11 C 2.57 27.25 2.52 31.38 2.47 35.52 C 2.42 39.73 2.36 43.95 2.31 48.17 C 2.2 56.44 2.1 64.72 2 73 C 0.68 73 -0.64 73 -2 73 C -3.86 71.14 -3.15 68.08 -3.16 65.6 C -3.17 64.93 -3.17 64.26 -3.18 63.57 C -3.19 61.35 -3.2 59.13 -3.2 56.91 C -3.21 55.38 -3.21 53.84 -3.22 52.3 C -3.23 49.07 -3.24 45.84 -3.24 42.61 C -3.25 38.47 -3.27 34.33 -3.3 30.18 C -3.32 27 -3.32 23.83 -3.32 20.65 C -3.33 19.12 -3.33 17.59 -3.35 16.07 C -3.36 13.93 -3.36 11.79 -3.36 9.66 C -3.36 8.44 -3.36 7.23 -3.37 5.97 C -3 3 -3 3 -1.48 1.08 C -0.99 0.73 -0.5 0.37 0 0 Z" stroke-linecap="round"/>
</g>
		<g transform="matrix(1 0 0 1 313.07 -4.5)">
<path style="stroke: none; stroke-width: 1; stroke-dasharray: none; stroke-linecap: butt; stroke-dashoffset: 0; stroke-linejoin: miter; stroke-miterlimit: 4; is-custom-font: none; font-file-url: none; fill: rgb(241,202,197); fill-rule: nonzero; opacity: 1;" transform=" translate(28.43, -32.5)" d="M 0 0 C 0.99 0 1.98 0 3 0 C 4.24 2.48 4.13 4.13 4.13 6.91 C 4.13 7.94 4.14 8.98 4.14 10.05 C 4.13 11.19 4.13 12.33 4.12 13.5 C 4.12 15.26 4.12 15.26 4.12 17.05 C 4.06 27.25 3.84 37.43 3.56 47.62 C 3.54 48.39 3.52 49.15 3.5 49.93 C 3.45 52.09 3.38 54.25 3.32 56.41 C 3.28 57.66 3.24 58.91 3.21 60.19 C 3 63 3 63 2 64 C 0.21 64.09 -1.58 64.11 -3.37 64.1 C -4.52 64.09 -5.67 64.09 -6.85 64.09 C -8.1 64.08 -9.36 64.07 -10.64 64.06 C -12.56 64.06 -12.56 64.06 -14.51 64.05 C -19.31 64.04 -24.1 64.01 -28.9 63.99 C -32.29 63.97 -35.69 63.96 -39.08 63.95 C -41.63 63.94 -44.18 63.93 -46.73 63.91 C -47.89 63.91 -49.04 63.91 -50.24 63.9 C -51.26 63.9 -52.27 63.89 -53.32 63.89 C -55.72 63.99 -57.72 64.31 -60 65 C -60.33 64.01 -60.66 63.02 -61 62 C -58.03 61.01 -55.88 60.82 -52.78 60.72 C -51.77 60.68 -50.75 60.64 -49.71 60.61 C -47.57 60.54 -45.43 60.46 -43.29 60.39 C -42.28 60.36 -41.26 60.32 -40.22 60.28 C -39.29 60.25 -38.36 60.22 -37.4 60.19 C -34.86 60.09 -34.86 60.09 -32 59 C -29.41 58.92 -26.86 58.88 -24.27 58.9 C -23.14 58.9 -23.14 58.9 -22 58.91 C -19.6 58.91 -17.21 58.92 -14.81 58.94 C -13.19 58.94 -11.56 58.95 -9.94 58.95 C -5.96 58.96 -1.98 58.98 2 59 C 1.89 51.6 1.78 44.21 1.66 36.81 C 1.61 33.37 1.55 29.94 1.5 26.5 C 1.45 22.56 1.38 18.61 1.32 14.66 C 1.3 13.43 1.28 12.19 1.27 10.92 C 1.24 9.21 1.24 9.21 1.21 7.46 C 1.18 5.95 1.18 5.95 1.16 4.4 C 1.16 1.99 1.16 1.99 0 0 Z" stroke-linecap="round"/>
</g>
		<g transform="matrix(1 0 0 1 -20.9544 -27.63)">
<path style="stroke: none; stroke-width: 1; stroke-dasharray: none; stroke-linecap: butt; stroke-dashoffset: 0; stroke-linejoin: miter; stroke-miterlimit: 4; is-custom-font: none; font-file-url: none; fill: rgb(223,124,114); fill-rule: nonzero; opacity: 1;" transform=" translate(-105.5456, -10.37)" d="M 0 0 C 26.94 -0.05 53.88 -0.08 80.81 -0.1 C 93.32 -0.11 105.83 -0.13 118.33 -0.15 C 129.23 -0.17 140.13 -0.18 151.03 -0.19 C 156.8 -0.19 162.57 -0.2 168.35 -0.21 C 173.78 -0.22 179.21 -0.23 184.64 -0.23 C 186.63 -0.23 188.63 -0.23 190.63 -0.24 C 193.34 -0.25 196.06 -0.25 198.78 -0.24 C 199.58 -0.25 200.37 -0.25 201.19 -0.26 C 205 -0.24 206.75 -0.17 210 2 C 211.25 5.76 211.11 9.27 211.06 13.19 C 211.06 13.94 211.05 14.69 211.05 15.46 C 211.04 17.31 211.02 19.15 211 21 C 210.34 21 209.68 21 209 21 C 208.13 18.01 207.89 15.36 207.94 12.25 C 207.95 11.45 207.96 10.65 207.96 9.83 C 207.98 8.92 207.98 8.92 208 8 C 207.34 8 206.68 8 206 8 C 205.67 5.69 205.34 3.38 205 1 C 137.35 1 69.7 1 0 1 C 0 0.67 0 0.34 0 0 Z" stroke-linecap="round"/>
</g>
		<g transform="matrix(1 0 0 1 -122.5 130.0526)">
<path style="stroke: none; stroke-width: 1; stroke-dasharray: none; stroke-linecap: butt; stroke-dashoffset: 0; stroke-linejoin: miter; stroke-miterlimit: 4; is-custom-font: none; font-file-url: none; fill: rgb(243,211,207); fill-rule: nonzero; opacity: 1;" transform=" translate(36, -5.0526)" d="M 0 0 C 0.99 0.33 1.98 0.66 3 1 C 3 1.66 3 2.32 3 3 C -9.2 7.72 -19.94 9.96 -33 10 C -34.3 10.03 -35.6 10.05 -36.94 10.08 C -45.62 10.19 -54.36 9.96 -63 9 C -63.33 8.67 -63.66 8.34 -64 8 C -66.57 7.47 -69.16 7.04 -71.75 6.6 C -72.49 6.4 -73.24 6.2 -74 6 C -74.33 5.34 -74.66 4.68 -75 4 C -70.28 3.04 -67.31 2.85 -63 5 C -50.81 6.14 -38.6 6.06 -26.38 5.69 C -25.1 5.65 -23.83 5.62 -22.51 5.58 C -21.32 5.54 -20.13 5.49 -18.9 5.45 C -17.3 5.39 -17.3 5.39 -15.67 5.33 C -12.78 5.17 -12.78 5.17 -10 3 C -8.47 2.59 -6.93 2.24 -5.38 1.94 C -2.4 1.53 -2.4 1.53 0 0 Z" stroke-linecap="round"/>
</g>
		<g transform="matrix(1 0 0 1 312.3266 -66.88)">
<path style="stroke: none; stroke-width: 1; stroke-dasharray: none; stroke-linecap: butt; stroke-dashoffset: 0; stroke-linejoin: miter; stroke-miterlimit: 4; is-custom-font: none; font-file-url: none; fill: rgb(223,122,112); fill-rule: nonzero; opacity: 1;" transform=" translate(-30.8265, -30.12)" d="M 0 0 C 0.99 0.33 1.98 0.66 3 1 C 3 19.48 3 37.96 3 57 C 3.66 57 4.32 57 5 57 C 5 57.66 5 58.32 5 59 C 23.81 59 42.62 59 62 59 C 62 59.33 62 59.66 62 60 C 54.36 60.05 46.72 60.08 39.08 60.1 C 35.53 60.11 31.98 60.13 28.43 60.15 C 24.36 60.18 20.28 60.19 16.2 60.2 C 14.29 60.21 14.29 60.21 12.34 60.23 C 10.56 60.23 10.56 60.23 8.76 60.23 C 7.72 60.23 6.67 60.24 5.6 60.24 C 3 60 3 60 0 58 C -0.36 55.56 -0.36 55.56 -0.34 52.45 C -0.34 51.29 -0.34 50.13 -0.34 48.93 C -0.32 47.67 -0.31 46.41 -0.29 45.12 C -0.29 43.83 -0.28 42.55 -0.28 41.22 C -0.27 37.81 -0.24 34.39 -0.21 30.98 C -0.18 27.49 -0.16 24.01 -0.15 20.52 C -0.11 13.68 -0.06 6.84 0 0 Z" stroke-linecap="round"/>
</g>
		<g transform="matrix(1 0 0 1 -133 213.6734)">
<path style="stroke: none; stroke-width: 1; stroke-dasharray: none; stroke-linecap: butt; stroke-dashoffset: 0; stroke-linejoin: miter; stroke-miterlimit: 4; is-custom-font: none; font-file-url: none; fill: rgb(223,121,111); fill-rule: nonzero; opacity: 1;" transform=" translate(-37.5, -3.6734)" d="M 0 0 C 0.8 0.09 1.61 0.18 2.43 0.28 C 27.09 3.01 51.22 3.67 76 2 C 75.67 2.99 75.34 3.98 75 5 C 65.35 8.22 53.65 7.19 43.56 7.19 C 41.66 7.19 41.66 7.19 39.71 7.19 C 30.95 7.13 22.63 6.56 14 5 C 11.56 4.64 9.13 4.29 6.69 3.94 C 1.26 3.13 1.26 3.13 -1 2 C -0.67 1.34 -0.34 0.68 0 0 Z" stroke-linecap="round"/>
</g>
		<g transform="matrix(1 0 0 1 -261.641 7)">
<path style="stroke: none; stroke-width: 1; stroke-dasharray: none; stroke-linecap: butt; stroke-dashoffset: 0; stroke-linejoin: miter; stroke-miterlimit: 4; is-custom-font: none; font-file-url: none; fill: rgb(235,180,174); fill-rule: nonzero; opacity: 1;" transform=" translate(-1.859, -32)" d="M 0 0 C 0.74 8.07 1.11 16.08 1.12 24.19 C 1.13 25.43 1.13 25.43 1.14 26.69 C 1.13 30.04 1.07 32.8 0 36 C 0.66 36 1.32 36 2 36 C 1.5 38.48 1.5 38.48 1 41 C 1.66 41 2.32 41 3 41 C 3.7 44.08 4.38 47.16 5.06 50.25 C 5.26 51.12 5.46 52 5.67 52.89 C 5.85 53.74 6.03 54.58 6.22 55.45 C 6.48 56.62 6.48 56.62 6.75 57.8 C 7.02 60.15 6.72 61.76 6 64 C 5.34 64 4.68 64 4 64 C 3.01 60.79 2.04 57.58 1.06 54.38 C 0.78 53.47 0.51 52.57 0.22 51.64 C -1.75 45.14 -3.14 39.14 -3.12 32.31 C -3.13 30.91 -3.13 30.91 -3.13 29.49 C -3 27 -3 27 -2 24 C -1.5 16.34 -2.33 8.63 -3 1 C -1 0 -1 0 0 0 Z" stroke-linecap="round"/>
</g>
		<g transform="matrix(1 0 0 1 249.5048 -101.1027)">
<path style="stroke: none; stroke-width: 1; stroke-dasharray: none; stroke-linecap: butt; stroke-dashoffset: 0; stroke-linejoin: miter; stroke-miterlimit: 4; is-custom-font: none; font-file-url: none; fill: rgb(230,160,153); fill-rule: nonzero; opacity: 1;" transform=" translate(-22.34, -2.2379)" d="M 0 0 C 1.16 0 2.32 0 3.52 0 C 4.77 0.02 6.02 0.03 7.32 0.05 C 8.6 0.05 9.88 0.06 11.2 0.06 C 14.61 0.07 18.02 0.1 21.43 0.13 C 24.91 0.17 28.39 0.18 31.86 0.19 C 38.69 0.23 45.51 0.28 52.34 0.34 C 52.83 1.83 52.83 1.83 53.34 3.34 C 43.23 4.24 33.21 4.5 23.08 4.47 C 20.64 4.47 18.21 4.47 15.77 4.48 C 7.57 4.48 -0.51 4.33 -8.66 3.34 C -6.08 0.01 -4.11 -0.03 0 0 Z" stroke-linecap="round"/>
</g>
		<g transform="matrix(1 0 0 1 -126.04 0)">
<path style="stroke: none; stroke-width: 1; stroke-dasharray: none; stroke-linecap: butt; stroke-dashoffset: 0; stroke-linejoin: miter; stroke-miterlimit: 4; is-custom-font: none; font-file-url: none; fill: rgb(232,167,161); fill-rule: nonzero; opacity: 1;" transform=" translate(-1.46, -37)" d="M 0 0 C 1.32 0.66 2.64 1.32 4 2 C 3.67 2.33 3.34 2.66 3 3 C 2.88 5.18 2.82 7.36 2.79 9.54 C 2.78 10.22 2.77 10.91 2.76 11.61 C 2.73 13.88 2.71 16.14 2.68 18.41 C 2.66 19.98 2.64 21.55 2.62 23.11 C 2.57 27.25 2.52 31.38 2.47 35.52 C 2.42 39.73 2.36 43.95 2.31 48.17 C 2.2 56.44 2.1 64.72 2 73 C 1.01 73.5 1.01 73.5 0 74 C -0.15 64.5 -0.3 55 -0.44 45.5 C -0.51 41.09 -0.58 36.68 -0.65 32.26 C -0.72 28.01 -0.78 23.76 -0.84 19.5 C -0.87 17.88 -0.89 16.25 -0.92 14.63 C -0.96 12.35 -0.99 10.08 -1.02 7.81 C -1.04 6.52 -1.06 5.23 -1.08 3.89 C -1 1 -1 1 0 0 Z" stroke-linecap="round"/>
</g>
		<g transform="matrix(1 0 0 1 -66 206.3888)">
<path style="stroke: none; stroke-width: 1; stroke-dasharray: none; stroke-linecap: butt; stroke-dashoffset: 0; stroke-linejoin: miter; stroke-miterlimit: 4; is-custom-font: none; font-file-url: none; fill: rgb(241,202,198); fill-rule: nonzero; opacity: 1;" transform=" translate(20.5, -6.3888)" d="M 0 0 C -2.53 3.07 -5.03 3.85 -8.81 4.94 C -9.96 5.27 -11.11 5.61 -12.3 5.95 C -14.13 6.47 -14.13 6.47 -16 7 C -17.26 7.38 -18.53 7.76 -19.83 8.14 C -29.47 11 -29.47 11 -34 11 C -34 11.66 -34 12.32 -34 13 C -36.31 12.67 -38.62 12.34 -41 12 C -40.34 11.67 -39.68 11.34 -39 11 C -39 10.34 -39 9.68 -39 9 C -38.24 8.82 -37.48 8.64 -36.69 8.45 C -31.89 7.28 -27.12 6.11 -22.44 4.5 C -7.8 -0.52 -7.8 -0.52 0 0 Z" stroke-linecap="round"/>
</g>
		<g transform="matrix(1 0 0 1 185.8543 -3.82)">
<path style="stroke: none; stroke-width: 1; stroke-dasharray: none; stroke-linecap: butt; stroke-dashoffset: 0; stroke-linejoin: miter; stroke-miterlimit: 4; is-custom-font: none; font-file-url: none; fill: rgb(232,167,161); fill-rule: nonzero; opacity: 1;" transform=" translate(-30.3543, -31.18)" d="M 0 0 C 0.33 0 0.66 0 1 0 C 1.33 19.14 1.66 38.28 2 58 C 5.91 59.96 7.4 60.26 11.59 60.32 C 12.72 60.34 13.84 60.36 14.99 60.38 C 16.8 60.4 16.8 60.4 18.64 60.41 C 20.5 60.44 20.5 60.44 22.39 60.47 C 25.67 60.52 28.95 60.56 32.23 60.6 C 35.59 60.64 38.94 60.69 42.29 60.74 C 48.86 60.84 55.43 60.92 62 61 C 62 61.33 62 61.66 62 62 C 54.23 62.07 46.46 62.12 38.69 62.16 C 35.08 62.17 31.47 62.19 27.86 62.23 C 24.38 62.26 20.9 62.28 17.42 62.28 C 15.44 62.29 13.46 62.32 11.49 62.34 C 10.29 62.34 9.09 62.34 7.85 62.34 C 6.26 62.35 6.26 62.35 4.64 62.36 C 2 62 2 62 0.15 60.84 C -1.49 58.22 -1.32 56.31 -1.25 53.24 C -1.23 52.06 -1.21 50.88 -1.19 49.66 C -1.13 47.75 -1.13 47.75 -1.07 45.8 C -1.05 44.5 -1.02 43.19 -0.99 41.85 C -0.92 38.38 -0.83 34.91 -0.74 31.44 C -0.65 27.9 -0.58 24.37 -0.5 20.83 C -0.35 13.88 -0.18 6.94 0 0 Z" stroke-linecap="round"/>
</g>
		<g transform="matrix(1 0 0 1 -338.8829 55)">
<path style="stroke: none; stroke-width: 1; stroke-dasharray: none; stroke-linecap: butt; stroke-dashoffset: 0; stroke-linejoin: miter; stroke-miterlimit: 4; is-custom-font: none; font-file-url: none; fill: rgb(225,132,122); fill-rule: nonzero; opacity: 1;" transform=" translate(-5.617, -20)" d="M 0 0 C 1.64 3.02 2.6 5.92 3.44 9.25 C 4.35 12.72 5.35 16.04 6.69 19.38 C 7.86 22.6 8.32 24.63 8 28 C 8.66 28 9.32 28 10 28 C 10.5 29.62 11 31.25 11.5 32.88 C 11.78 33.78 12.06 34.68 12.34 35.62 C 13 38 13 38 13 40 C 12.34 40 11.68 40 11 40 C 8.69 35.47 6.46 30.92 4.31 26.31 C 3.9 25.42 3.48 24.53 3.05 23.61 C 2.02 21.05 1.49 18.72 1 16 C 0.15 12.94 -0.7 9.89 -1.57 6.84 C -2.04 3.72 -1.72 2.59 0 0 Z" stroke-linecap="round"/>
</g>
		<g transform="matrix(1 0 0 1 -342.6366 -50)">
<path style="stroke: none; stroke-width: 1; stroke-dasharray: none; stroke-linecap: butt; stroke-dashoffset: 0; stroke-linejoin: miter; stroke-miterlimit: 4; is-custom-font: none; font-file-url: none; fill: rgb(224,129,120); fill-rule: nonzero; opacity: 1;" transform=" translate(5.1366, -24)" d="M 0 0 C 1.35 3.66 0.63 5.57 -0.94 9.06 C -2.63 12.88 -2.63 12.88 -3 17 C -3.31 18.34 -3.65 19.67 -4 21 C -6.04 29.95 -7.72 38.91 -9 48 C -9.33 48 -9.66 48 -10 48 C -10.22 46.23 -10.43 44.46 -10.62 42.69 C -10.8 41.21 -10.8 41.21 -10.98 39.7 C -11 37 -11 37 -9 34 C -8.87 31.56 -8.87 31.56 -9.06 28.88 C -9.17 23.3 -7.98 19.14 -6 14 C -5.33 11.67 -4.66 9.33 -4 7 C -3 3.62 -3 3.62 -2 1 C -1.34 0.67 -0.68 0.34 0 0 Z" stroke-linecap="round"/>
</g>
		<g transform="matrix(1 0 0 1 312.4967 25.4235)">
<path style="stroke: none; stroke-width: 1; stroke-dasharray: none; stroke-linecap: butt; stroke-dashoffset: 0; stroke-linejoin: miter; stroke-miterlimit: 4; is-custom-font: none; font-file-url: none; fill: rgb(232,166,160); fill-rule: nonzero; opacity: 1;" transform=" translate(-4.14, -1.435)" d="M 0 0 C 3.17 1.5 6.32 1.26 9.75 1.21 C 10.48 1.2 11.21 1.2 11.96 1.2 C 14.27 1.19 16.58 1.16 18.89 1.14 C 20.46 1.13 22.04 1.12 23.61 1.11 C 27.45 1.09 31.3 1.05 35.14 1.01 C 35.47 0.35 35.8 -0.31 36.14 -0.99 C 35.81 0.33 35.48 1.65 35.14 3.01 C 34.43 3.01 33.71 3.01 32.97 3 C 26.2 2.98 19.43 2.97 12.66 2.96 C 9.18 2.95 5.7 2.95 2.23 2.94 C -1.78 2.92 -5.78 2.92 -9.78 2.91 C -11.03 2.91 -12.27 2.9 -13.56 2.9 C -14.72 2.9 -15.88 2.9 -17.08 2.9 C -18.1 2.9 -19.12 2.89 -20.17 2.89 C -22.57 3 -24.57 3.32 -26.86 4.01 C -27.19 3.02 -27.52 2.03 -27.86 1.01 C -23.15 -0.56 -18.35 -0.45 -13.42 -0.68 C -12.37 -0.74 -11.32 -0.8 -10.24 -0.86 C -9.23 -0.9 -8.22 -0.95 -7.17 -1 C -5.79 -1.07 -5.79 -1.07 -4.37 -1.14 C -1.86 -0.99 -1.86 -0.99 0 0 Z" stroke-linecap="round"/>
</g>
		<g transform="matrix(1 0 0 1 -259 -42.5)">
<path style="stroke: none; stroke-width: 1; stroke-dasharray: none; stroke-linecap: butt; stroke-dashoffset: 0; stroke-linejoin: miter; stroke-miterlimit: 4; is-custom-font: none; font-file-url: none; fill: rgb(225,131,122); fill-rule: nonzero; opacity: 1;" transform=" translate(3.5, -16.5)" d="M 0 0 C 0.99 0.33 1.98 0.66 3 1 C 2.35 7.95 0.14 14.38 -2 21 C -2.66 21 -3.32 21 -4 21 C -3.98 21.76 -3.96 22.53 -3.94 23.31 C -4 26 -4 26 -5 29 C -5 29.99 -5 30.98 -5 32 C -6.49 32.5 -6.49 32.5 -8 33 C -8.66 32.67 -9.32 32.34 -10 32 C -9.39 28.44 -8.42 25.32 -7 22 C -6.34 22 -5.68 22 -5 22 C -5.23 21.2 -5.45 20.39 -5.69 19.56 C -6.29 12.64 -2.78 6.22 0 0 Z" stroke-linecap="round"/>
</g>
		<g transform="matrix(1 0 0 1 -34.5 95.5)">
<path style="stroke: none; stroke-width: 1; stroke-dasharray: none; stroke-linecap: butt; stroke-dashoffset: 0; stroke-linejoin: miter; stroke-miterlimit: 4; is-custom-font: none; font-file-url: none; fill: rgb(239,196,192); fill-rule: nonzero; opacity: 1;" transform=" translate(18, -19.5)" d="M 0 0 C 0.5 0.99 0.5 0.99 1 2 C 0.22 3.73 0.22 3.73 -0.94 5.62 C -1.62 6.74 -2.3 7.85 -3 9 C -3.66 9 -4.32 9 -5 9 C -5 9.99 -5 10.98 -5 12 C -5.66 12 -6.32 12 -7 12 C -7.38 12.89 -7.38 12.89 -7.77 13.8 C -9.13 16.23 -10.47 17.45 -12.62 19.19 C -16.64 22.55 -19.98 26.27 -23.34 30.28 C -23.89 30.85 -24.43 31.41 -25 32 C -25.66 32 -26.32 32 -27 32 C -27 32.66 -27 33.32 -27 34 C -28.68 35.32 -28.68 35.32 -30.88 36.69 C -31.59 37.15 -32.31 37.6 -33.05 38.07 C -33.7 38.38 -34.34 38.69 -35 39 C -35.66 38.67 -36.32 38.34 -37 38 C -35.38 36.66 -33.75 35.33 -32.12 34 C -31.22 33.26 -30.32 32.51 -29.38 31.75 C -27 30 -27 30 -25 30 C -24.89 29.4 -24.78 28.8 -24.67 28.18 C -23.55 24.54 -20.52 22.35 -17.81 19.81 C -13.2 15.37 -9.29 11.09 -6.05 5.51 C -5.7 5.01 -5.36 4.51 -5 4 C -4.34 4 -3.68 4 -3 4 C -1.36 2.04 -1.36 2.04 0 0 Z" stroke-linecap="round"/>
</g>
		<g transform="matrix(1 0 0 1 -347.0704 -5)">
<path style="stroke: none; stroke-width: 1; stroke-dasharray: none; stroke-linecap: butt; stroke-dashoffset: 0; stroke-linejoin: miter; stroke-miterlimit: 4; is-custom-font: none; font-file-url: none; fill: rgb(241,205,201); fill-rule: nonzero; opacity: 1;" transform=" translate(-0.4297, -21)" d="M 0 0 C 0.66 0 1.32 0 2 0 C 2 13.86 2 27.72 2 42 C 1.34 42 0.68 42 0 42 C -1.33 39.35 -1.13 37.33 -1.13 34.36 C -1.13 33.2 -1.14 32.05 -1.14 30.86 C -1.13 29.65 -1.13 28.44 -1.12 27.19 C -1.13 26.02 -1.13 24.85 -1.14 23.64 C -1.13 15.72 -0.72 7.89 0 0 Z" stroke-linecap="round"/>
</g>
		<g transform="matrix(1 0 0 1 75.1525 65)">
<path style="stroke: none; stroke-width: 1; stroke-dasharray: none; stroke-linecap: butt; stroke-dashoffset: 0; stroke-linejoin: miter; stroke-miterlimit: 4; is-custom-font: none; font-file-url: none; fill: rgb(230,158,152); fill-rule: nonzero; opacity: 1;" transform=" translate(3.3475, -18)" d="M 0 0 C 0.66 0 1.32 0 2 0 C 3.23 7.24 1.63 11.45 -1.38 18 C -3.39 22.61 -4.66 27.47 -6.04 32.3 C -7 35 -7 35 -9 36 C -9.39 29.8 -8.84 26.11 -6.08 20.6 C -4.28 16.28 -3.57 11.73 -2.71 7.14 C -2.1 4.42 -1.38 2.39 0 0 Z" stroke-linecap="round"/>
</g>
		<g transform="matrix(1 0 0 1 283 62.5)">
<path style="stroke: none; stroke-width: 1; stroke-dasharray: none; stroke-linecap: butt; stroke-dashoffset: 0; stroke-linejoin: miter; stroke-miterlimit: 4; is-custom-font: none; font-file-url: none; fill: rgb(222,120,110); fill-rule: nonzero; opacity: 1;" transform=" translate(-1.5, -17.5)" d="M 0 0 C 0.99 0.33 1.98 0.66 3 1 C 3 11.89 3 22.78 3 34 C 1.51 34.5 1.51 34.5 0 35 C 0 23.45 0 11.9 0 0 Z" stroke-linecap="round"/>
</g>
		<g transform="matrix(1 0 0 1 -185.5 205.8007)">
<path style="stroke: none; stroke-width: 1; stroke-dasharray: none; stroke-linecap: butt; stroke-dashoffset: 0; stroke-linejoin: miter; stroke-miterlimit: 4; is-custom-font: none; font-file-url: none; fill: rgb(241,204,199); fill-rule: nonzero; opacity: 1;" transform=" translate(-17, -4.8007)" d="M 0 0 C 5.95 -0.25 10.58 0.46 16.19 2.38 C 16.87 2.6 17.56 2.82 18.26 3.05 C 21.18 4 24.04 5.02 26.86 6.23 C 27.57 6.48 28.27 6.74 29 7 C 29.66 6.67 30.32 6.34 31 6 C 32.49 7.49 32.49 7.49 34 9 C 28.72 10.04 24.98 9.83 19.81 8.38 C 19.17 8.2 18.53 8.02 17.87 7.83 C 11.71 6.05 5.83 3.65 0 1 C 0 0.67 0 0.34 0 0 Z" stroke-linecap="round"/>
</g>
		<g transform="matrix(1 0 0 1 -287 146)">
<path style="stroke: none; stroke-width: 1; stroke-dasharray: none; stroke-linecap: butt; stroke-dashoffset: 0; stroke-linejoin: miter; stroke-miterlimit: 4; is-custom-font: none; font-file-url: none; fill: rgb(228,146,139); fill-rule: nonzero; opacity: 1;" transform=" translate(-16.5, -17)" d="M 0 0 C 3.11 1.35 4.84 2.73 6.94 5.38 C 10.16 9.2 13.67 12.53 17.38 15.88 C 22.93 20.91 28.41 26.05 33 32 C 33 32.66 33 33.32 33 34 C 27.07 31.49 23.12 27.53 20 22 C 17.62 19.32 16.43 18.14 13 17 C 8.16 11.77 3.76 6.05 0 0 Z" stroke-linecap="round"/>
</g>
		<g transform="matrix(1 0 0 1 -6.5 -140.5)">
<path style="stroke: none; stroke-width: 1; stroke-dasharray: none; stroke-linecap: butt; stroke-dashoffset: 0; stroke-linejoin: miter; stroke-miterlimit: 4; is-custom-font: none; font-file-url: none; fill: rgb(219,87,74); fill-rule: nonzero; opacity: 1;" transform=" translate(16, -17.5)" d="M 0 0 C 0.66 0.66 1.32 1.32 2 2 C -1.47 4.97 -1.47 4.97 -5 8 C -5 5 -5 5 -2.5 2.31 C -1.67 1.55 -0.85 0.79 0 0 Z M -9 6 C -8.01 6.33 -7.02 6.66 -6 7 C -7.32 8.32 -8.64 9.64 -10 11 C -10.33 10.01 -10.66 9.02 -11 8 C -10.34 7.34 -9.68 6.68 -9 6 Z M -12 11 C -11.34 11 -10.68 11 -10 11 C -10.33 11.66 -10.66 12.32 -11 13 C -11.33 12.34 -11.66 11.68 -12 11 Z M -24 23 C -23.34 23.66 -22.68 24.32 -22 25 C -25.3 28.3 -28.6 31.6 -32 35 C -32.66 34.34 -33.32 33.68 -34 33 C -30.7 29.7 -27.4 26.4 -24 23 Z" stroke-linecap="round"/>
</g>
		<g transform="matrix(1 0 0 1 -312 113)">
<path style="stroke: none; stroke-width: 1; stroke-dasharray: none; stroke-linecap: butt; stroke-dashoffset: 0; stroke-linejoin: miter; stroke-miterlimit: 4; is-custom-font: none; font-file-url: none; fill: rgb(239,197,192); fill-rule: nonzero; opacity: 1;" transform=" translate(-10.5, -15)" d="M 0 0 C 4.01 3.67 6.53 7.14 9 12 C 9 12.66 9 13.32 9 14 C 9.99 14.33 10.98 14.66 12 15 C 13.66 17.16 15.19 19.3 16.69 21.56 C 17.1 22.18 17.52 22.79 17.95 23.43 C 18.97 24.95 19.99 26.47 21 28 C 20.67 28.66 20.34 29.32 20 30 C 15.78 26.99 12.48 23.56 10 19 C 10 18.01 10 17.02 10 16 C 9.41 15.78 8.81 15.56 8.2 15.34 C 5.27 13.55 4.34 11.58 2.75 8.56 C 2.23 7.59 1.71 6.63 1.17 5.63 C 0 3 0 3 0 0 Z" stroke-linecap="round"/>
</g>
		<g transform="matrix(1 0 0 1 279.022 -69.5325)">
<path style="stroke: none; stroke-width: 1; stroke-dasharray: none; stroke-linecap: butt; stroke-dashoffset: 0; stroke-linejoin: miter; stroke-miterlimit: 4; is-custom-font: none; font-file-url: none; fill: rgb(242,206,202); fill-rule: nonzero; opacity: 1;" transform=" translate(0.0405, -30.53)" d="M 0 0 C 1.21 0.03 1.21 0.03 2.44 0.06 C 3.5 3.25 3.52 5.39 3.46 8.73 C 3.43 10.47 3.43 10.47 3.4 12.25 C 3.36 14.13 3.36 14.13 3.32 16.04 C 3.29 17.33 3.27 18.61 3.24 19.93 C 3.18 23.34 3.11 26.75 3.04 30.16 C 2.97 33.63 2.91 37.11 2.84 40.59 C 2.71 47.42 2.58 54.24 2.44 61.06 C 2.11 61.06 1.78 61.06 1.44 61.06 C 1.43 60.09 1.43 60.09 1.41 59.09 C 1.33 52.31 1.23 45.53 1.12 38.75 C 1.08 36.22 1.05 33.69 1.02 31.16 C 0.97 27.52 0.91 23.88 0.85 20.24 C 0.84 19.11 0.83 17.99 0.82 16.82 C 0.72 9.24 0.72 9.24 -1.56 2.06 C -2.22 1.73 -2.88 1.4 -3.56 1.06 C -2.56 0.06 -2.56 0.06 0 0 Z" stroke-linecap="round"/>
</g>
		<g transform="matrix(1 0 0 1 -37 -206)">
<path style="stroke: none; stroke-width: 1; stroke-dasharray: none; stroke-linecap: butt; stroke-dashoffset: 0; stroke-linejoin: miter; stroke-miterlimit: 4; is-custom-font: none; font-file-url: none; fill: rgb(242,208,204); fill-rule: nonzero; opacity: 1;" transform=" translate(-10.5, -7)" d="M 0 0 C 2.18 0.62 2.18 0.62 5 2 C 5.61 2.29 6.22 2.59 6.85 2.89 C 8.95 3.91 11.04 4.95 13.12 6 C 13.84 6.36 14.56 6.71 15.29 7.08 C 15.98 7.42 16.67 7.77 17.38 8.12 C 18.01 8.44 18.63 8.75 19.27 9.07 C 21 10 21 10 24 12 C 24 12.66 24 13.32 24 14 C 17.58 12.26 11.86 10.15 6 7 C 6 6.34 6 5.68 6 5 C 3.03 4.01 0.06 3.02 -3 2 C -2.01 1.34 -1.02 0.68 0 0 Z" stroke-linecap="round"/>
</g>
		<g transform="matrix(1 0 0 1 82 35.5)">
<path style="stroke: none; stroke-width: 1; stroke-dasharray: none; stroke-linecap: butt; stroke-dashoffset: 0; stroke-linejoin: miter; stroke-miterlimit: 4; is-custom-font: none; font-file-url: none; fill: rgb(223,122,112); fill-rule: nonzero; opacity: 1;" transform=" translate(0.5, -11.5)" d="M 0 0 C 0.99 0.33 1.98 0.66 3 1 C 2.01 7.93 1.02 14.86 0 22 C -0.99 22.33 -1.98 22.66 -3 23 C -3.38 20.67 -3.71 18.34 -4 16 C -3.67 15.67 -3.34 15.34 -3 15 C -2.63 12.67 -2.3 10.34 -2 8 C -1.11 1.11 -1.11 1.11 0 0 Z" stroke-linecap="round"/>
</g>
		<g transform="matrix(1 0 0 1 -260.5035 27.5)">
<path style="stroke: none; stroke-width: 1; stroke-dasharray: none; stroke-linecap: butt; stroke-dashoffset: 0; stroke-linejoin: miter; stroke-miterlimit: 4; is-custom-font: none; font-file-url: none; fill: rgb(232,168,162); fill-rule: nonzero; opacity: 1;" transform=" translate(-1.9965, -11.5)" d="M 0 0 C 0.66 0 1.32 0 2 0 C 2.7 3.08 3.38 6.16 4.06 9.25 C 4.36 10.56 4.36 10.56 4.67 11.89 C 4.85 12.74 5.03 13.58 5.22 14.45 C 5.4 15.23 5.57 16 5.75 16.8 C 6.02 19.15 5.72 20.76 5 23 C 4.34 23 3.68 23 3 23 C 2.11 20.11 1.23 17.21 0.38 14.31 C 0.12 13.5 -0.14 12.68 -0.4 11.84 C -2.19 5.69 -2.19 5.69 -1.15 1.92 C -0.77 1.29 -0.39 0.65 0 0 Z" stroke-linecap="round"/>
</g>
		<g transform="matrix(1 0 0 1 50 123)">
<path style="stroke: none; stroke-width: 1; stroke-dasharray: none; stroke-linecap: butt; stroke-dashoffset: 0; stroke-linejoin: miter; stroke-miterlimit: 4; is-custom-font: none; font-file-url: none; fill: rgb(230,154,147); fill-rule: nonzero; opacity: 1;" transform=" translate(4.5, -11)" d="M 0 0 C 0.99 0 1.98 0 3 0 C 3 1.65 3 3.3 3 5 C 2.01 5 1.02 5 0 5 C -0.23 5.87 -0.47 6.74 -0.71 7.63 C -2.16 11.41 -4.01 13.81 -6.62 16.88 C -7.85 18.33 -7.85 18.33 -9.1 19.8 C -9.73 20.53 -10.35 21.25 -11 22 C -11.33 20.68 -11.66 19.36 -12 18 C -11.34 18 -10.68 18 -10 18 C -10 17.01 -10 16.02 -10 15 C -9.34 15 -8.68 15 -8 15 C -7.67 13.35 -7.34 11.7 -7 10 C -6.34 10 -5.68 10 -5 10 C -4.73 9.28 -4.46 8.56 -4.19 7.81 C -2.99 4.99 -1.79 2.5 0 0 Z" stroke-linecap="round"/>
</g>
		<g transform="matrix(1 0 0 1 -183 -132.549)">
<path style="stroke: none; stroke-width: 1; stroke-dasharray: none; stroke-linecap: butt; stroke-dashoffset: 0; stroke-linejoin: miter; stroke-miterlimit: 4; is-custom-font: none; font-file-url: none; fill: rgb(231,164,158); fill-rule: nonzero; opacity: 1;" transform=" translate(10.5, -4.4511)" d="M 0 0 C -3.67 3.17 -7.28 5.26 -11.69 7.25 C -12.83 7.77 -13.96 8.29 -15.14 8.83 C -18 10 -18 10 -20 10 C -20.33 9.01 -20.66 8.02 -21 7 C -18.45 5.63 -15.88 4.28 -13.31 2.94 C -12.59 2.55 -11.87 2.16 -11.13 1.76 C -4.46 -1.68 -4.46 -1.68 0 0 Z" stroke-linecap="round"/>
</g>
		<g transform="matrix(1 0 0 1 -259.5 -181.5688)">
<path style="stroke: none; stroke-width: 1; stroke-dasharray: none; stroke-linecap: butt; stroke-dashoffset: 0; stroke-linejoin: miter; stroke-miterlimit: 4; is-custom-font: none; font-file-url: none; fill: rgb(242,210,206); fill-rule: nonzero; opacity: 1;" transform=" translate(9, -7.4312)" d="M 0 0 C -1.57 3.86 -3.98 6.18 -7 9 C -7.57 9.56 -8.15 10.11 -8.74 10.69 C -9.64 11.52 -9.64 11.52 -10.56 12.38 C -11.12 12.9 -11.68 13.42 -12.25 13.96 C -14 15 -14 15 -16.21 14.66 C -16.8 14.44 -17.39 14.23 -18 14 C -18 13.34 -18 12.68 -18 12 C -16.56 10.67 -16.56 10.67 -14.57 9.18 C -13.86 8.64 -13.14 8.11 -12.41 7.56 C -11.66 7 -10.9 6.45 -10.12 5.88 C -9.01 5.03 -9.01 5.03 -7.86 4.17 C -2.26 0 -2.26 0 0 0 Z" stroke-linecap="round"/>
</g>
		<g transform="matrix(1 0 0 1 -145.9995 130.7882)">
<path style="stroke: none; stroke-width: 1; stroke-dasharray: none; stroke-linecap: butt; stroke-dashoffset: 0; stroke-linejoin: miter; stroke-miterlimit: 4; is-custom-font: none; font-file-url: none; fill: rgb(235,179,173); fill-rule: nonzero; opacity: 1;" transform=" translate(-5.77, -1.3087)" d="M 0 0 C 4.04 0.93 8.14 0.99 12.27 1.15 C 13.14 1.18 14.01 1.22 14.91 1.26 C 17.03 1.36 19.15 1.44 21.27 1.52 C 21.27 2.18 21.27 2.84 21.27 3.52 C -0.55 3.93 -0.55 3.93 -8.73 1.52 C -9.06 0.86 -9.39 0.2 -9.73 -0.48 C -6.04 -1.64 -3.71 -1.02 0 0 Z" stroke-linecap="round"/>
</g>
		<g transform="matrix(1 0 0 1 -126.4959 133.0523)">
<path style="stroke: none; stroke-width: 1; stroke-dasharray: none; stroke-linecap: butt; stroke-dashoffset: 0; stroke-linejoin: miter; stroke-miterlimit: 4; is-custom-font: none; font-file-url: none; fill: rgb(243,210,206); fill-rule: nonzero; opacity: 1;" transform=" translate(3.66, -1.9313)" d="M 0 0 C 1.12 0.05 2.24 0.1 3.4 0.15 C 5.16 0.23 5.16 0.23 6.96 0.32 C 8.14 0.37 9.33 0.42 10.55 0.47 C 13.48 0.6 16.41 0.74 19.34 0.88 C 19.34 1.21 19.34 1.54 19.34 1.88 C 18.44 1.92 18.44 1.92 17.52 1.95 C 14.81 2.07 12.1 2.19 9.4 2.32 C 7.98 2.38 7.98 2.38 6.53 2.44 C 5.63 2.48 4.73 2.52 3.81 2.56 C 2.56 2.62 2.56 2.62 1.29 2.67 C -0.67 2.67 -0.67 2.67 -1.66 3.88 C -3.52 3.9 -5.38 3.84 -7.23 3.76 C -8.36 3.71 -9.48 3.66 -10.64 3.61 C -12.41 3.53 -12.41 3.53 -14.23 3.44 C -15.41 3.39 -16.6 3.34 -17.83 3.28 C -20.77 3.15 -23.72 3.02 -26.66 2.88 C -26.66 2.55 -26.66 2.22 -26.66 1.88 C -25.82 1.84 -25.82 1.84 -24.95 1.8 C -22.4 1.69 -19.84 1.56 -17.29 1.44 C -15.95 1.38 -15.95 1.38 -14.59 1.32 C -13.74 1.28 -12.89 1.24 -12.02 1.2 C -11.23 1.16 -10.44 1.12 -9.64 1.08 C -6.13 0.72 -3.75 -0.17 0 0 Z" stroke-linecap="round"/>
</g>
		<g transform="matrix(1 0 0 1 -208.5 106)">
<path style="stroke: none; stroke-width: 1; stroke-dasharray: none; stroke-linecap: butt; stroke-dashoffset: 0; stroke-linejoin: miter; stroke-miterlimit: 4; is-custom-font: none; font-file-url: none; fill: rgb(240,200,196); fill-rule: nonzero; opacity: 1;" transform=" translate(-10, -8)" d="M 0 0 C 7.07 3.84 14.46 8.08 20 14 C 19.67 14.66 19.34 15.32 19 16 C 11.86 12.96 6.34 8.65 1 3 C 0.67 2.01 0.34 1.02 0 0 Z" stroke-linecap="round"/>
</g>
		<g transform="matrix(1 0 0 1 -75 209.6943)">
<path style="stroke: none; stroke-width: 1; stroke-dasharray: none; stroke-linecap: butt; stroke-dashoffset: 0; stroke-linejoin: miter; stroke-miterlimit: 4; is-custom-font: none; font-file-url: none; fill: rgb(229,155,148); fill-rule: nonzero; opacity: 1;" transform=" translate(11.5, -2.6944)" d="M 0 0 C 0 0.33 0 0.66 0 1 C -1.92 1.51 -3.83 2 -5.75 2.5 C -7.35 2.92 -7.35 2.92 -8.98 3.34 C -12 4 -12 4 -16 4 C -16 4.66 -16 5.32 -16 6 C -18.31 5.67 -20.62 5.34 -23 5 C -22.34 4.67 -21.68 4.34 -21 4 C -21 3.34 -21 2.68 -21 2 C -13.55 -0.23 -7.69 -1.41 0 0 Z" stroke-linecap="round"/>
</g>
		<g transform="matrix(1 0 0 1 -335.8928 64.5)">
<path style="stroke: none; stroke-width: 1; stroke-dasharray: none; stroke-linecap: butt; stroke-dashoffset: 0; stroke-linejoin: miter; stroke-miterlimit: 4; is-custom-font: none; font-file-url: none; fill: rgb(239,198,193); fill-rule: nonzero; opacity: 1;" transform=" translate(-3.6072, -10.5)" d="M 0 0 C 0.66 0.33 1.32 0.66 2 1 C 2.59 3.65 2.74 6.29 3 9 C 3.66 9 4.32 9 5 9 C 5.5 10.62 6 12.25 6.5 13.88 C 6.78 14.78 7.06 15.68 7.34 16.62 C 8 19 8 19 8 21 C 7.34 21 6.68 21 6 21 C 5.03 19.05 4.05 17.11 3.09 15.15 C 2.19 13.38 1.2 11.65 0.19 9.94 C -1.31 6.24 -0.84 3.84 0 0 Z" stroke-linecap="round"/>
</g>
		<g transform="matrix(1 0 0 1 -280.5 -162.5)">
<path style="stroke: none; stroke-width: 1; stroke-dasharray: none; stroke-linecap: butt; stroke-dashoffset: 0; stroke-linejoin: miter; stroke-miterlimit: 4; is-custom-font: none; font-file-url: none; fill: rgb(247,229,227); fill-rule: nonzero; opacity: 1;" transform=" translate(11, -13.5)" d="M 0 0 C 0.66 0.33 1.32 0.66 2 1 C 0.02 2.98 -1.96 4.96 -4 7 C -4.66 6.67 -5.32 6.34 -6 6 C -4.02 4.02 -2.04 2.04 0 0 Z M -13 12 C -12.34 12.33 -11.68 12.66 -11 13 C -13.03 17.6 -15.32 20.6 -19 24 C -19.6 24.6 -20.2 25.2 -20.81 25.81 C -21.2 26.2 -21.6 26.6 -22 27 C -22.66 26.67 -23.32 26.34 -24 26 C -23.29 25.38 -23.29 25.38 -22.56 24.75 C -20.86 23.15 -20.86 23.15 -20.62 21.12 C -19.82 18.39 -18.5 17.2 -16.44 15.25 C -15.8 14.64 -15.16 14.02 -14.5 13.39 C -14 12.93 -13.51 12.47 -13 12 Z" stroke-linecap="round"/>
</g>
		<g transform="matrix(1 0 0 1 -201.5 -212.9092)">
<path style="stroke: none; stroke-width: 1; stroke-dasharray: none; stroke-linecap: butt; stroke-dashoffset: 0; stroke-linejoin: miter; stroke-miterlimit: 4; is-custom-font: none; font-file-url: none; fill: rgb(233,173,167); fill-rule: nonzero; opacity: 1;" transform=" translate(12, -4.0909)" d="M 0 0 C -3.94 2.02 -7.96 3.86 -12 5.69 C -12.71 6.02 -13.42 6.35 -14.16 6.7 C -17.91 8.38 -20.07 9.3 -24 8 C -21.53 5.07 -19.1 4.13 -15.5 2.94 C -4.3 -0.81 -4.3 -0.81 0 0 Z" stroke-linecap="round"/>
</g>
		<g transform="matrix(1 0 0 1 -169.0044 125.1281)">
<path style="stroke: none; stroke-width: 1; stroke-dasharray: none; stroke-linecap: butt; stroke-dashoffset: 0; stroke-linejoin: miter; stroke-miterlimit: 4; is-custom-font: none; font-file-url: none; fill: rgb(223,125,115); fill-rule: nonzero; opacity: 1;" transform=" translate(-6.48, -3.7374)" d="M 0 0 C 1.11 0.43 1.11 0.43 2.23 0.86 C 3.42 1.3 3.42 1.3 4.64 1.74 C 5.8 2.17 5.8 2.17 6.98 2.61 C 10.63 3.69 14.28 4.72 17.98 5.61 C 17.98 6.27 17.98 6.93 17.98 7.61 C 12.14 7.98 7.93 6.8 2.55 4.61 C 1.82 4.32 1.08 4.04 0.33 3.74 C -1.46 3.04 -3.24 2.33 -5.02 1.61 C -2.02 -0.39 -2.02 -0.39 0 0 Z" stroke-linecap="round"/>
</g>
		<g transform="matrix(1 0 0 1 -241 182.5)">
<path style="stroke: none; stroke-width: 1; stroke-dasharray: none; stroke-linecap: butt; stroke-dashoffset: 0; stroke-linejoin: miter; stroke-miterlimit: 4; is-custom-font: none; font-file-url: none; fill: rgb(235,180,174); fill-rule: nonzero; opacity: 1;" transform=" translate(-10.5, -6.5)" d="M 0 0 C 5.8 1.33 10.09 3.67 15 7 C 15.99 7.66 16.98 8.32 18 9 C 18.99 9.66 19.98 10.32 21 11 C 21 11.66 21 12.32 21 13 C 12.47 11.18 5.82 6.39 0 0 Z" stroke-linecap="round"/>
</g>
		<g transform="matrix(1 0 0 1 -264.0282 10.5)">
<path style="stroke: none; stroke-width: 1; stroke-dasharray: none; stroke-linecap: butt; stroke-dashoffset: 0; stroke-linejoin: miter; stroke-miterlimit: 4; is-custom-font: none; font-file-url: none; fill: rgb(241,203,198); fill-rule: nonzero; opacity: 1;" transform=" translate(0.5281, -9.5)" d="M 0 0 C 0 3.3 0 6.6 0 10 C 0.66 10 1.32 10 2 10 C 1.67 12.97 1.34 15.94 1 19 C 0.01 18.67 -0.98 18.34 -2 18 C -3.23 12.33 -3.09 6.76 -3 1 C -1 0 -1 0 0 0 Z" stroke-linecap="round"/>
</g>
		<g transform="matrix(1 0 0 1 -334.5 -79.5)">
<path style="stroke: none; stroke-width: 1; stroke-dasharray: none; stroke-linecap: butt; stroke-dashoffset: 0; stroke-linejoin: miter; stroke-miterlimit: 4; is-custom-font: none; font-file-url: none; fill: rgb(241,205,201); fill-rule: nonzero; opacity: 1;" transform=" translate(2, -8.5)" d="M 0 0 C 0.66 0 1.32 0 2 0 C 1.04 5.98 -0.63 11.95 -4 17 C -4.66 16.34 -5.32 15.68 -6 15 C -5.7 9.22 -3.63 4.42 0 0 Z" stroke-linecap="round"/>
</g>
		<g transform="matrix(1 0 0 1 28.5 152)">
<path style="stroke: none; stroke-width: 1; stroke-dasharray: none; stroke-linecap: butt; stroke-dashoffset: 0; stroke-linejoin: miter; stroke-miterlimit: 4; is-custom-font: none; font-file-url: none; fill: rgb(220,95,83); fill-rule: nonzero; opacity: 1;" transform=" translate(8, -10)" d="M 0 0 C 2 1 2 1 2 1 Z M -6 5 C -5.34 5 -4.68 5 -4 5 C -4 5.99 -4 6.98 -4 8 C -4.66 8 -5.32 8 -6 8 C -6 7.01 -6 6.02 -6 5 Z M -6 8 C -6.55 11.88 -8.28 13.6 -11.06 16.25 C -11.8 16.96 -12.53 17.66 -13.29 18.39 C -13.85 18.92 -14.42 19.45 -15 20 C -15.99 19.67 -16.98 19.34 -18 19 C -8.73 8 -8.73 8 -6 8 Z" stroke-linecap="round"/>
</g>
		<g transform="matrix(1 0 0 1 -5.9964 180.0933)">
<path style="stroke: none; stroke-width: 1; stroke-dasharray: none; stroke-linecap: butt; stroke-dashoffset: 0; stroke-linejoin: miter; stroke-miterlimit: 4; is-custom-font: none; font-file-url: none; fill: rgb(238,189,184); fill-rule: nonzero; opacity: 1;" transform=" translate(6.68, -5.6988)" d="M 0 0 C 0.9 0.3 0.9 0.3 1.82 0.61 C -3.58 5.18 -8.45 9.26 -15.18 11.61 C -13.68 7.77 -11.48 6.01 -8.18 3.61 C -7.17 2.84 -6.16 2.08 -5.12 1.29 C -2.18 -0.39 -2.18 -0.39 0 0 Z" stroke-linecap="round"/>
</g>
		<g transform="matrix(1 0 0 1 -22 84)">
<path style="stroke: none; stroke-width: 1; stroke-dasharray: none; stroke-linecap: butt; stroke-dashoffset: 0; stroke-linejoin: miter; stroke-miterlimit: 4; is-custom-font: none; font-file-url: none; fill: rgb(243,211,208); fill-rule: nonzero; opacity: 1;" transform=" translate(5.5, -8)" d="M 0 0 C 0.33 0.66 0.66 1.32 1 2 C 0.22 3.73 0.22 3.73 -0.94 5.62 C -1.62 6.74 -2.3 7.85 -3 9 C -3.66 9 -4.32 9 -5 9 C -5 9.99 -5 10.98 -5 12 C -5.66 12 -6.32 12 -7 12 C -7.66 13.32 -8.32 14.64 -9 16 C -9.99 15.34 -10.98 14.68 -12 14 C -10.88 12.33 -9.76 10.66 -8.62 9 C -8 8.07 -7.37 7.14 -6.73 6.19 C -6.16 5.47 -5.59 4.74 -5 4 C -4.34 4 -3.68 4 -3 4 C -1.36 2.04 -1.36 2.04 0 0 Z" stroke-linecap="round"/>
</g>
		<g transform="matrix(1 0 0 1 -65 -127.8696)">
<path style="stroke: none; stroke-width: 1; stroke-dasharray: none; stroke-linecap: butt; stroke-dashoffset: 0; stroke-linejoin: miter; stroke-miterlimit: 4; is-custom-font: none; font-file-url: none; fill: rgb(226,138,129); fill-rule: nonzero; opacity: 1;" transform=" translate(-2.5, -5.1303)" d="M 0 0 C 0 0.66 0 1.32 0 2 C 0.66 2 1.32 2 2 2 C 2.66 2.66 3.32 3.32 4 4 C 5.66 4.68 7.33 5.35 9 6 C 9.99 6.66 10.98 7.32 12 8 C 11.67 8.99 11.34 9.98 11 11 C 10.01 10.67 9.02 10.34 8 10 C 8 9.34 8 8.68 8 8 C 6.68 8 5.36 8 4 8 C 4 7.34 4 6.68 4 6 C 3.01 6 2.02 6 1 6 C 1 5.34 1 4.68 1 4 C 0.05 3.71 -0.9 3.42 -1.88 3.12 C -5 2 -5 2 -7 0 C -3.87 -1.04 -3.01 -0.93 0 0 Z" stroke-linecap="round"/>
</g>
		<g transform="matrix(1 0 0 1 -237.8856 -86.5)">
<path style="stroke: none; stroke-width: 1; stroke-dasharray: none; stroke-linecap: butt; stroke-dashoffset: 0; stroke-linejoin: miter; stroke-miterlimit: 4; is-custom-font: none; font-file-url: none; fill: rgb(235,176,170); fill-rule: nonzero; opacity: 1;" transform=" translate(3.3856, -8.5)" d="M 0 0 C 0.99 0.33 1.98 0.66 3 1 C -0.58 6.67 -4.77 11.8 -9 17 C -10.25 14.51 -9.78 13.59 -9 11 C -8.34 11 -7.68 11 -7 11 C -7 10.01 -7 9.02 -7 8 C -6.34 8 -5.68 8 -5 8 C -5 7.01 -5 6.02 -5 5 C -2.5 2.31 -2.5 2.31 0 0 Z" stroke-linecap="round"/>
</g>
		<g transform="matrix(1 0 0 1 3 -182)">
<path style="stroke: none; stroke-width: 1; stroke-dasharray: none; stroke-linecap: butt; stroke-dashoffset: 0; stroke-linejoin: miter; stroke-miterlimit: 4; is-custom-font: none; font-file-url: none; fill: rgb(237,188,183); fill-rule: nonzero; opacity: 1;" transform=" translate(-9.5, -7)" d="M 0 0 C 3.08 1.2 6.06 2.48 9 4 C 9 4.66 9 5.32 9 6 C 9.59 6.09 10.19 6.18 10.8 6.28 C 13.53 7.17 14.47 8.34 16.25 10.56 C 16.77 11.2 17.29 11.84 17.83 12.5 C 18.21 13 18.6 13.49 19 14 C 16 14 16 14 14 13 C 14 12.34 14 11.68 14 11 C 12.68 10.67 11.36 10.34 10 10 C 10 9.34 10 8.68 10 8 C 9.34 8 8.68 8 8 8 C 6.67 6.67 5.33 5.33 4 4 C 1.87 2.76 1.87 2.76 0 2 C 0 1.34 0 0.68 0 0 Z" stroke-linecap="round"/>
</g>
		<g transform="matrix(1 0 0 1 -218.505 -205.4775)">
<path style="stroke: none; stroke-width: 1; stroke-dasharray: none; stroke-linecap: butt; stroke-dashoffset: 0; stroke-linejoin: miter; stroke-miterlimit: 4; is-custom-font: none; font-file-url: none; fill: rgb(242,206,202); fill-rule: nonzero; opacity: 1;" transform=" translate(6.38, -3.71)" d="M 0 0 C 0.54 0.39 1.07 0.78 1.62 1.19 C -2.1 4.43 -6.68 6.7 -11.38 8.19 C -12.37 7.86 -13.36 7.53 -14.38 7.19 C -4.48 -1.53 -4.48 -1.53 0 0 Z" stroke-linecap="round"/>
</g>
		<g transform="matrix(1 0 0 1 -91.5 128.5)">
<path style="stroke: none; stroke-width: 1; stroke-dasharray: none; stroke-linecap: butt; stroke-dashoffset: 0; stroke-linejoin: miter; stroke-miterlimit: 4; is-custom-font: none; font-file-url: none; fill: rgb(230,161,154); fill-rule: nonzero; opacity: 1;" transform=" translate(5, -3.5)" d="M 0 0 C 0.99 0.33 1.98 0.66 3 1 C 3 1.66 3 2.32 3 3 C 1.25 3.67 -0.5 4.34 -2.25 5 C -3.71 5.56 -3.71 5.56 -5.2 6.12 C -8 7 -8 7 -12 7 C -12.33 6.01 -12.66 5.02 -13 4 C -12.15 3.8 -11.29 3.59 -10.41 3.38 C -9.31 3.11 -8.2 2.84 -7.06 2.56 C -5.41 2.16 -5.41 2.16 -3.72 1.75 C -1.11 1.27 -1.11 1.27 0 0 Z" stroke-linecap="round"/>
</g>
		<g transform="matrix(1 0 0 1 224 -87.5)">
<path style="stroke: none; stroke-width: 1; stroke-dasharray: none; stroke-linecap: butt; stroke-dashoffset: 0; stroke-linejoin: miter; stroke-miterlimit: 4; is-custom-font: none; font-file-url: none; fill: rgb(244,217,214); fill-rule: nonzero; opacity: 1;" transform=" translate(-5.5, -12.5)" d="M 0 0 C 3.63 0 7.26 0 11 0 C 11 0.66 11 1.32 11 2 C 8.36 2.33 5.72 2.66 3 3 C 2.67 10.26 2.34 17.52 2 25 C 1.67 25 1.34 25 1 25 C 0.67 16.75 0.34 8.5 0 0 Z" stroke-linecap="round"/>
</g>
		<g transform="matrix(1 0 0 1 -254.61 44.5)">
<path style="stroke: none; stroke-width: 1; stroke-dasharray: none; stroke-linecap: butt; stroke-dashoffset: 0; stroke-linejoin: miter; stroke-miterlimit: 4; is-custom-font: none; font-file-url: none; fill: rgb(223,122,112); fill-rule: nonzero; opacity: 1;" transform=" translate(-1.89, -7.5)" d="M 0 0 C 0.66 0 1.32 0 2 0 C 2.7 1.93 3.38 3.87 4.06 5.81 C 4.45 6.89 4.83 7.97 5.22 9.08 C 6 12 6 12 5 15 C 4.34 15 3.68 15 3 15 C 2.14 13.05 1.28 11.09 0.44 9.12 C -0.04 8.03 -0.51 6.94 -1 5.82 C -1.33 4.89 -1.66 3.96 -2 3 C -1 1 -1 1 0 0 Z" stroke-linecap="round"/>
</g>
		<g transform="matrix(1 0 0 1 72.4132 73.5)">
<path style="stroke: none; stroke-width: 1; stroke-dasharray: none; stroke-linecap: butt; stroke-dashoffset: 0; stroke-linejoin: miter; stroke-miterlimit: 4; is-custom-font: none; font-file-url: none; fill: rgb(239,196,191); fill-rule: nonzero; opacity: 1;" transform=" translate(2.0868, -9.5)" d="M 0 0 C 1.26 3.57 0.73 5.91 -0.31 9.5 C -0.58 10.44 -0.84 11.38 -1.11 12.34 C -1.9 14.71 -2.82 16.81 -4 19 C -5.63 14.48 -4.92 10.13 -3.04 5.77 C -2.07 3.82 -1.06 1.9 0 0 Z" stroke-linecap="round"/>
</g>
		<g transform="matrix(1 0 0 1 82.5 -25)">
<path style="stroke: none; stroke-width: 1; stroke-dasharray: none; stroke-linecap: butt; stroke-dashoffset: 0; stroke-linejoin: miter; stroke-miterlimit: 4; is-custom-font: none; font-file-url: none; fill: rgb(222,117,107); fill-rule: nonzero; opacity: 1;" transform=" translate(0, -8)" d="M 0 0 C 0.66 0 1.32 0 2 0 C 2 5.28 2 10.56 2 16 C 1.34 16 0.68 16 0 16 C -0.39 13.71 -0.76 11.42 -1.12 9.12 C -1.44 7.21 -1.44 7.21 -1.76 5.26 C -1.84 4.18 -1.92 3.11 -2 2 C -1.34 1.34 -0.68 0.68 0 0 Z" stroke-linecap="round"/>
</g>
		<g transform="matrix(1 0 0 1 -79 -136.0144)">
<path style="stroke: none; stroke-width: 1; stroke-dasharray: none; stroke-linecap: butt; stroke-dashoffset: 0; stroke-linejoin: miter; stroke-miterlimit: 4; is-custom-font: none; font-file-url: none; fill: rgb(241,205,200); fill-rule: nonzero; opacity: 1;" transform=" translate(-8.5, -2.9856)" d="M 0 0 C 6.7 -0.49 11.07 0.92 17 4 C 16.67 4.66 16.34 5.32 16 6 C 10.01 6.54 5.18 3.69 0 1 C 0 0.67 0 0.34 0 0 Z" stroke-linecap="round"/>
</g>
		<g transform="matrix(1 0 0 1 -178 208.6645)">
<path style="stroke: none; stroke-width: 1; stroke-dasharray: none; stroke-linecap: butt; stroke-dashoffset: 0; stroke-linejoin: miter; stroke-miterlimit: 4; is-custom-font: none; font-file-url: none; fill: rgb(232,169,163); fill-rule: nonzero; opacity: 1;" transform=" translate(2.5, -1.6645)" d="M 0 0 C 0.66 0 1.32 0 2 0 C 3.68 0.64 5.35 1.3 7 2 C 5 4 5 4 3.12 4.05 C -2.05 3.36 -6.97 2.37 -12 1 C -12 0.67 -12 0.34 -12 0 C -7.73 -1.16 -4.33 -0.74 0 0 Z" stroke-linecap="round"/>
</g>
		<g transform="matrix(1 0 0 1 -317.5 106)">
<path style="stroke: none; stroke-width: 1; stroke-dasharray: none; stroke-linecap: butt; stroke-dashoffset: 0; stroke-linejoin: miter; stroke-miterlimit: 4; is-custom-font: none; font-file-url: none; fill: rgb(228,148,140); fill-rule: nonzero; opacity: 1;" transform=" translate(-5, -8)" d="M 0 0 C 4.54 4.02 7.46 8.49 10 14 C 10 14.66 10 15.32 10 16 C 5.95 14.51 4.72 12.31 2.75 8.56 C 2.23 7.59 1.71 6.63 1.17 5.63 C 0 3 0 3 0 0 Z" stroke-linecap="round"/>
</g>
		<g transform="matrix(1 0 0 1 5 -152.5)">
<path style="stroke: none; stroke-width: 1; stroke-dasharray: none; stroke-linecap: butt; stroke-dashoffset: 0; stroke-linejoin: miter; stroke-miterlimit: 4; is-custom-font: none; font-file-url: none; fill: rgb(221,96,84); fill-rule: nonzero; opacity: 1;" transform=" translate(4.5, -5.5)" d="M 0 0 C 0.66 0.66 1.32 1.32 2 2 C -1.47 4.97 -1.47 4.97 -5 8 C -5 5 -5 5 -2.5 2.31 C -1.67 1.55 -0.85 0.79 0 0 Z M -9 6 C -8.01 6.33 -7.02 6.66 -6 7 C -7.32 8.32 -8.64 9.64 -10 11 C -10.33 10.01 -10.66 9.02 -11 8 C -10.34 7.34 -9.68 6.68 -9 6 Z" stroke-linecap="round"/>
</g>
		<g transform="matrix(1 0 0 1 -5.5 49)">
<path style="stroke: none; stroke-width: 1; stroke-dasharray: none; stroke-linecap: butt; stroke-dashoffset: 0; stroke-linejoin: miter; stroke-miterlimit: 4; is-custom-font: none; font-file-url: none; fill: rgb(225,132,123); fill-rule: nonzero; opacity: 1;" transform=" translate(0, -9)" d="M 0 0 C 1.32 0 2.64 0 4 0 C 2 6 0 12 -2 18 C -3.05 16.14 -3.05 16.14 -4 14 C -3.25 11.81 -3.25 11.81 -2 9 C -1.25 6.02 -0.62 3.01 0 0 Z" stroke-linecap="round"/>
</g>
		<g transform="matrix(1 0 0 1 -296 137.5)">
<path style="stroke: none; stroke-width: 1; stroke-dasharray: none; stroke-linecap: butt; stroke-dashoffset: 0; stroke-linejoin: miter; stroke-miterlimit: 4; is-custom-font: none; font-file-url: none; fill: rgb(223,122,112); fill-rule: nonzero; opacity: 1;" transform=" translate(-7.5, -8.5)" d="M 0 0 C 3.3 1.41 5.2 3.07 7.5 5.81 C 8.1 6.52 8.7 7.23 9.32 7.96 C 9.87 8.64 10.43 9.31 11 10 C 12.21 11.42 12.21 11.42 13.44 12.88 C 15 15 15 15 15 17 C 14.34 17 13.68 17 13 17 C 8.17 11.76 3.76 6.05 0 0 Z" stroke-linecap="round"/>
</g>
		<g transform="matrix(1 0 0 1 -262.4891 -32)">
<path style="stroke: none; stroke-width: 1; stroke-dasharray: none; stroke-linecap: butt; stroke-dashoffset: 0; stroke-linejoin: miter; stroke-miterlimit: 4; is-custom-font: none; font-file-url: none; fill: rgb(234,174,168); fill-rule: nonzero; opacity: 1;" transform=" translate(2.9891, -6)" d="M 0 0 C 0.08 3.04 -0.02 5.07 -1 8 C -1 8.99 -1 9.98 -1 11 C -1.99 11.33 -2.98 11.66 -4 12 C -4.66 11.67 -5.32 11.34 -6 11 C -5.39 7.45 -4.54 4.27 -3 1 C -1 0 -1 0 0 0 Z" stroke-linecap="round"/>
</g>
		<g transform="matrix(1 0 0 1 274 -101.5)">
<path style="stroke: none; stroke-width: 1; stroke-dasharray: none; stroke-linecap: butt; stroke-dashoffset: 0; stroke-linejoin: miter; stroke-miterlimit: 4; is-custom-font: none; font-file-url: none; fill: rgb(223,122,112); fill-rule: nonzero; opacity: 1;" transform=" translate(-6.5, -1.5)" d="M 0 0 C 3.96 0 7.92 0 12 0 C 12.33 0.99 12.66 1.98 13 3 C 8.71 3 4.42 3 0 3 C 0 2.01 0 1.02 0 0 Z" stroke-linecap="round"/>
</g>
		<g transform="matrix(1 0 0 1 -55.505 -214.9039)">
<path style="stroke: none; stroke-width: 1; stroke-dasharray: none; stroke-linecap: butt; stroke-dashoffset: 0; stroke-linejoin: miter; stroke-miterlimit: 4; is-custom-font: none; font-file-url: none; fill: rgb(224,129,119); fill-rule: nonzero; opacity: 1;" transform=" translate(-2.62, -2.6704)" d="M 0 0 C 0.87 0.29 1.73 0.59 2.62 0.89 C 3.49 1.17 4.36 1.46 5.25 1.75 C 6.43 2.16 6.43 2.16 7.62 2.57 C 8.62 2.9 9.61 3.23 10.62 3.57 C 10.62 4.23 10.62 4.89 10.62 5.57 C 4.67 5.18 0 4.2 -5.38 1.57 C -2.38 -0.43 -2.38 -0.43 0 0 Z" stroke-linecap="round"/>
</g>
		<g transform="matrix(1 0 0 1 -236.5 78)">
<path style="stroke: none; stroke-width: 1; stroke-dasharray: none; stroke-linecap: butt; stroke-dashoffset: 0; stroke-linejoin: miter; stroke-miterlimit: 4; is-custom-font: none; font-file-url: none; fill: rgb(241,204,199); fill-rule: nonzero; opacity: 1;" transform=" translate(-6, -7)" d="M 0 0 C 4.07 1.36 5.42 4.13 7.69 7.56 C 8.1 8.18 8.52 8.79 8.95 9.43 C 9.97 10.95 10.99 12.47 12 14 C 9 14 9 14 6.81 12.12 C 5 10 5 10 5 8 C 4.34 8 3.68 8 3 8 C 2.01 5.36 1.02 2.72 0 0 Z" stroke-linecap="round"/>
</g>
		<g transform="matrix(1 0 0 1 -610 623.05)">
<path style="stroke: none; stroke-width: 1; stroke-dasharray: none; stroke-linecap: butt; stroke-dashoffset: 0; stroke-linejoin: miter; stroke-miterlimit: 4; is-custom-font: none; font-file-url: none; fill: rgb(0,0,0); fill-rule: nonzero; opacity: 1;" transform=" translate(-8.5, -4.05)" d="M 0 0 C 1.98 0 3.96 0 6 0 C 6.66 1.65 7.32 3.3 8 5 C 9.3 5.12 10.6 5.25 11.94 5.38 C 14.15 5.59 14.15 5.59 16 6 C 16.33 6.66 16.66 7.32 17 8 C 12.04 8.29 8.97 8.13 5 5 C 5 4.34 5 3.68 5 3 C 3.35 2.67 1.7 2.34 0 2 C 0 1.34 0 0.68 0 0 Z" stroke-linecap="round"/>
</g>
		<g transform="matrix(1 0 0 1 -228.5 -98.5)">
<path style="stroke: none; stroke-width: 1; stroke-dasharray: none; stroke-linecap: butt; stroke-dashoffset: 0; stroke-linejoin: miter; stroke-miterlimit: 4; is-custom-font: none; font-file-url: none; fill: rgb(223,117,107); fill-rule: nonzero; opacity: 1;" transform=" translate(3, -5.5)" d="M 0 0 C 0.66 0 1.32 0 2 0 C 0.79 3.44 -0.39 5.5 -3 8 C -3.33 8.99 -3.66 9.98 -4 11 C -5.32 10.34 -6.64 9.68 -8 9 C -7.04 7.87 -6.08 6.75 -5.12 5.62 C -4.59 5 -4.06 4.37 -3.51 3.73 C -2.39 2.44 -1.21 1.21 0 0 Z" stroke-linecap="round"/>
</g>
		<g transform="matrix(1 0 0 1 285.5 29.4911)">
<path style="stroke: none; stroke-width: 1; stroke-dasharray: none; stroke-linecap: butt; stroke-dashoffset: 0; stroke-linejoin: miter; stroke-miterlimit: 4; is-custom-font: none; font-file-url: none; fill: rgb(221,111,100); fill-rule: nonzero; opacity: 1;" transform=" translate(5, -3.4911)" d="M 0 0 C 0 0.99 0 1.98 0 3 C -1.18 3.15 -1.18 3.15 -2.38 3.31 C -5.33 3.78 -5.33 3.78 -7 7 C -7.66 7 -8.32 7 -9 7 C -9.33 5.02 -9.66 3.04 -10 1 C -6.59 0.22 -3.49 -0.1 0 0 Z" stroke-linecap="round"/>
</g>
		<g transform="matrix(1 0 0 1 -199.005 -122.9426)">
<path style="stroke: none; stroke-width: 1; stroke-dasharray: none; stroke-linecap: butt; stroke-dashoffset: 0; stroke-linejoin: miter; stroke-miterlimit: 4; is-custom-font: none; font-file-url: none; fill: rgb(220,95,83); fill-rule: nonzero; opacity: 1;" transform=" translate(4.88, -3.8074)" d="M 0 0 C 0.54 0.25 1.07 0.5 1.62 0.75 C 0.63 1.08 -0.36 1.41 -1.38 1.75 C -1.38 2.41 -1.38 3.07 -1.38 3.75 C -4.02 5.21 -5.27 5.75 -8.38 5.75 C -8.38 5.09 -8.38 4.43 -8.38 3.75 C -3.23 -0.34 -3.23 -0.34 0 0 Z M -11.38 5.75 C -10.38 5.75 -9.39 5.75 -8.38 5.75 C -8.38 6.41 -8.38 7.07 -8.38 7.75 C -9.37 7.75 -10.36 7.75 -11.38 7.75 C -11.38 7.09 -11.38 6.43 -11.38 5.75 Z" stroke-linecap="round"/>
</g>
		<g transform="matrix(1 0 0 1 -339.5623 -68)">
<path style="stroke: none; stroke-width: 1; stroke-dasharray: none; stroke-linecap: butt; stroke-dashoffset: 0; stroke-linejoin: miter; stroke-miterlimit: 4; is-custom-font: none; font-file-url: none; fill: rgb(231,161,155); fill-rule: nonzero; opacity: 1;" transform=" translate(2.0623, -6)" d="M 0 0 C 1.12 3.3 0.9 5.05 -0.44 8.25 C -0.72 8.96 -1.01 9.66 -1.31 10.39 C -1.54 10.92 -1.76 11.45 -2 12 C -2.66 12 -3.32 12 -4 12 C -5.4 8.82 -4.89 7.7 -3.69 4.31 C -2 1 -2 1 0 0 Z" stroke-linecap="round"/>
</g>
		<g transform="matrix(1 0 0 1 -255.5 -184.5)">
<path style="stroke: none; stroke-width: 1; stroke-dasharray: none; stroke-linecap: butt; stroke-dashoffset: 0; stroke-linejoin: miter; stroke-miterlimit: 4; is-custom-font: none; font-file-url: none; fill: rgb(238,191,187); fill-rule: nonzero; opacity: 1;" transform=" translate(5, -4.5)" d="M 0 0 C -1.41 3.47 -2.91 4.88 -6.12 6.75 C -6.85 7.18 -7.57 7.61 -8.32 8.05 C -8.87 8.36 -9.43 8.68 -10 9 C -10 8.01 -10 7.02 -10 6 C -8.32 4.39 -8.32 4.39 -6.12 2.81 C -5.05 2.02 -5.05 2.02 -3.95 1.21 C -2 0 -2 0 0 0 Z" stroke-linecap="round"/>
</g>
		<g transform="matrix(1 0 0 1 -116.5 132.5)">
<path style="stroke: none; stroke-width: 1; stroke-dasharray: none; stroke-linecap: butt; stroke-dashoffset: 0; stroke-linejoin: miter; stroke-miterlimit: 4; is-custom-font: none; font-file-url: none; fill: rgb(232,167,161); fill-rule: nonzero; opacity: 1;" transform=" translate(-12, -1.5)" d="M 0 0 C 8.25 0.33 16.5 0.66 25 1 C 25 1.33 25 1.66 25 2 C 16.42 2.33 7.84 2.66 -1 3 C -0.67 2.01 -0.34 1.02 0 0 Z" stroke-linecap="round"/>
</g>
		<g transform="matrix(1 0 0 1 -126 -29.5)">
<path style="stroke: none; stroke-width: 1; stroke-dasharray: none; stroke-linecap: butt; stroke-dashoffset: 0; stroke-linejoin: miter; stroke-miterlimit: 4; is-custom-font: none; font-file-url: none; fill: rgb(242,208,204); fill-rule: nonzero; opacity: 1;" transform=" translate(-1.5, -7.5)" d="M 0 0 C 1.32 0.66 2.64 1.32 4 2 C 3.67 2.33 3.34 2.66 3 3 C 2.72 5.84 2.55 8.68 2.38 11.53 C 2.25 12.35 2.13 13.16 2 14 C 1.01 14.5 1.01 14.5 0 15 C -0.19 12.69 -0.38 10.38 -0.56 8.06 C -0.72 6.13 -0.72 6.13 -0.88 4.16 C -0.92 3.12 -0.96 2.07 -1 1 C -0.67 0.67 -0.34 0.34 0 0 Z" stroke-linecap="round"/>
</g>
		<g transform="matrix(1 0 0 1 -262 -22.5)">
<path style="stroke: none; stroke-width: 1; stroke-dasharray: none; stroke-linecap: butt; stroke-dashoffset: 0; stroke-linejoin: miter; stroke-miterlimit: 4; is-custom-font: none; font-file-url: none; fill: rgb(223,118,108); fill-rule: nonzero; opacity: 1;" transform=" translate(-2.5, -4.5)" d="M 0 0 C 1.65 0 3.3 0 5 0 C 4.67 2.64 4.34 5.28 4 8 C 3.01 8.33 2.02 8.66 1 9 C 0.46 5.94 0 3.11 0 0 Z" stroke-linecap="round"/>
</g>
		<g transform="matrix(1 0 0 1 -346.648 -34)">
<path style="stroke: none; stroke-width: 1; stroke-dasharray: none; stroke-linecap: butt; stroke-dashoffset: 0; stroke-linejoin: miter; stroke-miterlimit: 4; is-custom-font: none; font-file-url: none; fill: rgb(223,123,113); fill-rule: nonzero; opacity: 1;" transform=" translate(1.148, -8)" d="M 0 0 C 1.23 3.68 0.7 5.88 0.06 9.69 C -0.13 10.87 -0.33 12.05 -0.53 13.26 C -0.68 14.17 -0.84 15.07 -1 16 C -1.33 16 -1.66 16 -2 16 C -3.45 6 -3.45 6 -1.56 1.81 C -1.05 1.21 -0.53 0.62 0 0 Z" stroke-linecap="round"/>
</g>
		<g transform="matrix(1 0 0 1 -165 212)">
<path style="stroke: none; stroke-width: 1; stroke-dasharray: none; stroke-linecap: butt; stroke-dashoffset: 0; stroke-linejoin: miter; stroke-miterlimit: 4; is-custom-font: none; font-file-url: none; fill: rgb(222,115,105); fill-rule: nonzero; opacity: 1;" transform=" translate(-5.5, -2)" d="M 0 0 C 3.96 0.33 7.92 0.66 12 1 C 12 1.99 12 2.98 12 4 C 7.71 3.67 3.42 3.34 -1 3 C -0.67 2.01 -0.34 1.02 0 0 Z" stroke-linecap="round"/>
</g>
		<g transform="matrix(1 0 0 1 -44.5 -210)">
<path style="stroke: none; stroke-width: 1; stroke-dasharray: none; stroke-linecap: butt; stroke-dashoffset: 0; stroke-linejoin: miter; stroke-miterlimit: 4; is-custom-font: none; font-file-url: none; fill: rgb(233,171,165); fill-rule: nonzero; opacity: 1;" transform=" translate(-3, -3)" d="M 0 0 C 2.44 0.75 2.44 0.75 5 2 C 5.76 2.37 6.53 2.74 7.31 3.12 C 7.87 3.41 8.43 3.7 9 4 C 9 4.66 9 5.32 9 6 C 4.61 5.34 1.02 3.81 -3 2 C -2.01 1.34 -1.02 0.68 0 0 Z" stroke-linecap="round"/>
</g>
		<g transform="matrix(1 0 0 1 46 128.5)">
<path style="stroke: none; stroke-width: 1; stroke-dasharray: none; stroke-linecap: butt; stroke-dashoffset: 0; stroke-linejoin: miter; stroke-miterlimit: 4; is-custom-font: none; font-file-url: none; fill: rgb(237,187,182); fill-rule: nonzero; opacity: 1;" transform=" translate(2.5, -5.5)" d="M 0 0 C 0.68 1.77 0.68 1.77 1 4 C -0.21 5.92 -0.21 5.92 -1.94 7.75 C -2.5 8.36 -3.07 8.98 -3.65 9.61 C -4.32 10.3 -4.32 10.3 -5 11 C -5.33 9.68 -5.66 8.36 -6 7 C -5.34 7 -4.68 7 -4 7 C -4 6.01 -4 5.02 -4 4 C -3.34 4 -2.68 4 -2 4 C -1.34 2.68 -0.68 1.36 0 0 Z" stroke-linecap="round"/>
</g>
		<g transform="matrix(1 0 0 1 -338.42 58.5)">
<path style="stroke: none; stroke-width: 1; stroke-dasharray: none; stroke-linecap: butt; stroke-dashoffset: 0; stroke-linejoin: miter; stroke-miterlimit: 4; is-custom-font: none; font-file-url: none; fill: rgb(232,167,161); fill-rule: nonzero; opacity: 1;" transform=" translate(-1.08, -4.5)" d="M 0 0 C 0.66 0.33 1.32 0.66 2 1 C 2.59 3.65 2.74 6.29 3 9 C 2.01 9 1.02 9 0 9 C -1.12 3.38 -1.12 3.38 0 0 Z" stroke-linecap="round"/>
</g>
		<g transform="matrix(1 0 0 1 -178 -135.3838)">
<path style="stroke: none; stroke-width: 1; stroke-dasharray: none; stroke-linecap: butt; stroke-dashoffset: 0; stroke-linejoin: miter; stroke-miterlimit: 4; is-custom-font: none; font-file-url: none; fill: rgb(240,201,197); fill-rule: nonzero; opacity: 1;" transform=" translate(5.5, -1.6161)" d="M 0 0 C -3.42 3.15 -6.44 3.56 -11 4 C -10 1 -10 1 -7.75 -0.25 C -4.72 -1.08 -2.99 -0.85 0 0 Z" stroke-linecap="round"/>
</g>
		<g transform="matrix(1 0 0 1 -195.5 -215.3737)">
<path style="stroke: none; stroke-width: 1; stroke-dasharray: none; stroke-linecap: butt; stroke-dashoffset: 0; stroke-linejoin: miter; stroke-miterlimit: 4; is-custom-font: none; font-file-url: none; fill: rgb(224,127,117); fill-rule: nonzero; opacity: 1;" transform=" translate(6, -1.6262)" d="M 0 0 C -1.33 0.67 -2.67 1.33 -4 2 C -4.99 2.56 -4.99 2.56 -6 3.12 C -8 4 -8 4 -12 4 C -12 3.34 -12 2.68 -12 2 C -7.86 -1.39 -5.09 -1.1 0 0 Z" stroke-linecap="round"/>
</g>
		<g transform="matrix(1 0 0 1 602.5 626.0749)">
<path style="stroke: none; stroke-width: 1; stroke-dasharray: none; stroke-linecap: butt; stroke-dashoffset: 0; stroke-linejoin: miter; stroke-miterlimit: 4; is-custom-font: none; font-file-url: none; fill: rgb(0,0,0); fill-rule: nonzero; opacity: 1;" transform=" translate(-5, -1.0749)" d="M 0 0 C 3.63 0 7.26 0 11 0 C 7.8 2.14 6.98 2.23 3.31 2.12 C 2.1 2.1 2.1 2.1 0.86 2.07 C -0.06 2.04 -0.06 2.04 -1 2 C -0.67 1.34 -0.34 0.68 0 0 Z" stroke-linecap="round"/>
</g>
		<g transform="matrix(1 0 0 1 615.5 619.5)">
<path style="stroke: none; stroke-width: 1; stroke-dasharray: none; stroke-linecap: butt; stroke-dashoffset: 0; stroke-linejoin: miter; stroke-miterlimit: 4; is-custom-font: none; font-file-url: none; fill: rgb(11,3,3); fill-rule: nonzero; opacity: 1;" transform=" translate(1, -2.5)" d="M 0 0 C 0.66 0.33 1.32 0.66 2 1 C 0.68 2.32 -0.64 3.64 -2 5 C -2.66 4.67 -3.32 4.34 -4 4 C -2.68 2.68 -1.36 1.36 0 0 Z" stroke-linecap="round"/>
</g>
		<g transform="matrix(1 0 0 1 -613.5 -635)">
<path style="stroke: none; stroke-width: 1; stroke-dasharray: none; stroke-linecap: butt; stroke-dashoffset: 0; stroke-linejoin: miter; stroke-miterlimit: 4; is-custom-font: none; font-file-url: none; fill: rgb(218,75,62); fill-rule: nonzero; opacity: 1;" transform=" translate(-1, -1)" d="M 0 0 C 0.99 0.5 0.99 0.5 2 1 C 1.01 1.5 1.01 1.5 0 2 C 0 1.34 0 0.68 0 0 Z" stroke-linecap="round"/>
</g>
		<g transform="matrix(1 0 0 1 620.5 615.5)">
<path style="stroke: none; stroke-width: 1; stroke-dasharray: none; stroke-linecap: butt; stroke-dashoffset: 0; stroke-linejoin: miter; stroke-miterlimit: 4; is-custom-font: none; font-file-url: none; fill: rgb(0,0,0); fill-rule: nonzero; opacity: 1;" transform=" translate(-1, -0.5)" d="M 0 0 C 2 1 2 1 2 1 Z" stroke-linecap="round"/>
</g>
		<g transform="matrix(1 0 0 1 -630.5 -618.5)">
<path style="stroke: none; stroke-width: 1; stroke-dasharray: none; stroke-linecap: butt; stroke-dashoffset: 0; stroke-linejoin: miter; stroke-miterlimit: 4; is-custom-font: none; font-file-url: none; fill: rgb(218,75,62); fill-rule: nonzero; opacity: 1;" transform=" translate(-1, -0.5)" d="M 0 0 C 2 1 2 1 2 1 Z" stroke-linecap="round"/>
</g>
		<g transform="matrix(1 0 0 1 -637.5 -640)">
<path style="stroke: none; stroke-width: 1; stroke-dasharray: none; stroke-linecap: butt; stroke-dashoffset: 0; stroke-linejoin: miter; stroke-miterlimit: 4; is-custom-font: none; font-file-url: none; fill: rgb(0,0,0); fill-rule: nonzero; opacity: 1;" transform=" translate(0, 0)" d="" stroke-linecap="round"/>
</g>
		<g transform="matrix(1 0 0 1 -637.5 -640)">
<path style="stroke: none; stroke-width: 1; stroke-dasharray: none; stroke-linecap: butt; stroke-dashoffset: 0; stroke-linejoin: miter; stroke-miterlimit: 4; is-custom-font: none; font-file-url: none; fill: rgb(0,0,0); fill-rule: nonzero; opacity: 1;" transform=" translate(0, 0)" d="" stroke-linecap="round"/>
</g>
		<g transform="matrix(1 0 0 1 -637.5 -640)">
<path style="stroke: none; stroke-width: 1; stroke-dasharray: none; stroke-linecap: butt; stroke-dashoffset: 0; stroke-linejoin: miter; stroke-miterlimit: 4; is-custom-font: none; font-file-url: none; fill: rgb(0,0,0); fill-rule: nonzero; opacity: 1;" transform=" translate(0, 0)" d="" stroke-linecap="round"/>
</g>
		<g transform="matrix(1 0 0 1 -637.5 -640)">
<path style="stroke: none; stroke-width: 1; stroke-dasharray: none; stroke-linecap: butt; stroke-dashoffset: 0; stroke-linejoin: miter; stroke-miterlimit: 4; is-custom-font: none; font-file-url: none; fill: rgb(0,0,0); fill-rule: nonzero; opacity: 1;" transform=" translate(0, 0)" d="" stroke-linecap="round"/>
</g>
		<g transform="matrix(1 0 0 1 -637.5 -640)">
<path style="stroke: none; stroke-width: 1; stroke-dasharray: none; stroke-linecap: butt; stroke-dashoffset: 0; stroke-linejoin: miter; stroke-miterlimit: 4; is-custom-font: none; font-file-url: none; fill: rgb(218,75,62); fill-rule: nonzero; opacity: 1;" transform=" translate(0, 0)" d="" stroke-linecap="round"/>
</g>
		<g transform="matrix(1 0 0 1 -637.5 -640)">
<path style="stroke: none; stroke-width: 1; stroke-dasharray: none; stroke-linecap: butt; stroke-dashoffset: 0; stroke-linejoin: miter; stroke-miterlimit: 4; is-custom-font: none; font-file-url: none; fill: rgb(0,0,0); fill-rule: nonzero; opacity: 1;" transform=" translate(0, 0)" d="" stroke-linecap="round"/>
</g>
		<g transform="matrix(1 0 0 1 -637.5 -640)">
<path style="stroke: none; stroke-width: 1; stroke-dasharray: none; stroke-linecap: butt; stroke-dashoffset: 0; stroke-linejoin: miter; stroke-miterlimit: 4; is-custom-font: none; font-file-url: none; fill: rgb(218,75,62); fill-rule: nonzero; opacity: 1;" transform=" translate(0, 0)" d="" stroke-linecap="round"/>
</g>
</g>
</g>
</svg>