<svg xmlns="http://www.w3.org/2000/svg" xmlns:xlink="http://www.w3.org/1999/xlink" version="1.1" width="1000" height="1000" viewBox="0 0 1000 1000" xml:space="preserve">
<desc>Created with Fabric.js 3.5.0</desc>
<defs>
</defs>
<rect x="0" y="0" width="100%" height="100%" fill="#ffffff"/>
<g transform="matrix(3.5078 0 0 3.5078 505.1232 505.1232)" id="216899">
<g style="" vector-effect="non-scaling-stroke">
		<g transform="matrix(1 0 0 1 0 0)" id="SvgjsRect1106">
<rect style="stroke: none; stroke-width: 1; stroke-dasharray: none; stroke-linecap: butt; stroke-dashoffset: 0; stroke-linejoin: miter; stroke-miterlimit: 4; is-custom-font: none; font-file-url: none; fill: rgb(223,159,69); fill-rule: nonzero; opacity: 1;" x="-144" y="-144" rx="0" ry="0" width="288" height="288"/>
</g>
		<g transform="matrix(0.3038 0 0 0.3038 0.007 0.0072)" id="SvgjsG1102">
<path style="stroke: none; stroke-width: 1; stroke-dasharray: none; stroke-linecap: butt; stroke-dashoffset: 0; stroke-linejoin: miter; stroke-miterlimit: 4; is-custom-font: none; font-file-url: none; fill: rgb(255,255,255); fill-rule: nonzero; opacity: 1;" transform=" translate(-256, -256)" d="M 256 112 z M 349.2 334.8 c -13.5 -4.7 -28.1 -5 -41.6 -9.7 c -4.1 -1.4 -12.2 -3.1 -13.9 -7.8 c -1.6 -4.6 -1.6 -10 -1.9 -14.8 c -0.2 -3.8 -0.3 -7.6 -0.3 -11.4 c 0 -2.5 6.4 -7.8 7.8 -10.1 c 5.4 -9 5.9 -21.1 6.9 -31.3 c 8.7 2.4 9.8 -13.7 11.3 -18.6 c 1.1 -3.4 7.8 -26.8 -2.6 -23.6 c 2.5 -4.4 3.5 -9.8 4.2 -14.7 c 2 -12.8 2.8 -26.8 -1.1 -39.3 c -8.1 -26 -33 -40.6 -59.3 -41.4 c -26.7 -0.9 -53.5 11.9 -63.5 37.8 c -4.8 12.6 -4.4 26.3 -2.8 39.5 c 0.7 6 1.7 12.7 4.7 18.1 c -9.7 -2.9 -4.5 17.7 -3.4 21.3 c 1.6 5.1 3 23.4 12.1 20.9 c 0.8 8.1 1.7 16.4 3.9 24.3 c 1.5 5.3 4.6 9.8 8.2 13.9 c 1.8 2 2.7 2.2 2.6 4.8 c -0.1 7.8 0.1 16.2 -1.9 23.8 c -2 7.6 -18.7 10.8 -25.4 12.2 c -18 3.7 -34.6 5.4 -49.6 16.6 c -17.5 12.9 -26.6 33 -26.6 54.7 h 278 c 0 -29.5 -17.8 -55.5 -45.8 -65.2 c -11.2 -3.9 11.3 3.9 0 0 z m -202.1 28.8 c 5.6 -5.9 12.7 -11.1 20.4 -14 c 10.5 -4 22.4 -3.8 33.3 -6.6 c 9 -2.3 20.2 -5.9 27.2 -12.4 c 6.4 -6 7.1 -15.2 7.7 -23.5 c 0.5 -7 0.4 -13.9 0.4 -20.9 c 0 -4.9 -5.7 -7.7 -8.5 -11.6 c -4.5 -6.1 -4.7 -15.2 -5.6 -22.5 c -0.4 -3.2 -0.5 -7.3 -3.2 -9.5 c -3 -2.4 -5.2 -3.7 -6.7 -7.5 c -2 -5.2 -2.7 -10.8 -4.3 -16.2 c -1 -3.5 2.5 -6.8 3.9 -9.7 c 2.6 -5.3 -1.9 -13.5 -2.8 -19 c -2.8 -16.4 -2.7 -34.3 9.1 -47.3 c 23.7 -26.2 78 -17.9 85.8 18.9 c 2.4 11.5 0.9 24.9 -2.3 36.1 c -1.4 4.8 -3 8.3 -0.2 13 c 4.2 6.8 2.4 11.2 0.4 18.8 c -1.6 6.3 -3.6 9.1 -8.4 13 c -4 3.2 -3.4 11.2 -4.1 15.8 c -0.8 5.6 -1.3 11.5 -4.7 16.2 c -1.3 1.8 -8.4 7.4 -8.4 9.3 c 0 11 -0.5 22.2 1.4 33.1 c 2.6 15.5 15.6 19.2 28.6 24.5 c 13.2 5.1 28.5 3.2 41.3 9.5 c 13.2 6.5 25.9 18.4 29.7 33.1 H 135 c 1.9 -8.3 6.5 -14.6 12.1 -20.6 c 9.2 -9.7 -5.9 6.3 0 0 z" stroke-linecap="round"/>
</g>
		<g transform="matrix(0.3038 0 0 0.3038 0.0112 -0.0255)" id="SvgjsG1102">
<path style="stroke: none; stroke-width: 1; stroke-dasharray: none; stroke-linecap: butt; stroke-dashoffset: 0; stroke-linejoin: miter; stroke-miterlimit: 4; is-custom-font: none; font-file-url: none; fill: rgb(255,255,255); fill-rule: nonzero; opacity: 1;" transform=" translate(-256, -255.9)" d="M 144.1 322 c 7 -3.5 14.6 -4.3 22.3 -5.1 c 2.8 -0.3 4.1 -2.2 2 -4.9 c -4 -5.1 -17.8 -6.1 -23.6 -8.4 c -3.6 -1.4 -4.6 -2.7 -4.9 -6.7 c -0.1 -1.8 -1.1 -9.8 0.3 -11.1 c 1 -1 7.3 -0.6 8.7 -0.8 c 5.7 -0.7 11.5 -1.9 16.9 -4 c 2.3 -0.9 4.5 -2 6.5 -3.4 c 2.4 -1.8 -1.8 -6.2 -2.9 -8.6 c -3.4 -7.5 -4.9 -15.7 -5.4 -23.9 c -1 -16.1 1.5 -32.3 -1.5 -48.3 C 158 172.3 139.1 160 115 160 c -14.9 0 -29.6 5.1 -37.9 18.1 c -9.2 14.3 -8.7 32.1 -8.2 48.4 c 0.3 9.3 0.7 18.7 -0.6 28 c -0.6 4 -1.5 7.9 -2.9 11.7 c -1.1 2.9 -6.7 10.1 -4.5 11.6 c 8.3 5.9 22.3 7.9 32.3 7.1 c 0.3 4.9 1.2 11.2 -0.6 15.8 c -2.8 7.2 -23.7 9.1 -30 11.2 C 45 317.8 32 332.5 32 352 h 79.5 c 1.3 0 6.3 -9.3 7.7 -10.8 c 7 -7.8 15.6 -14.5 24.9 -19.2 c 9 -4.5 -14.6 7.4 0 0 z m -41.3 14 H 53.9 c 7.1 -11.8 24.9 -11 36.6 -15.2 c 10.8 -3.9 17.7 -10.5 18.8 -22 c 0.1 -1.3 0.2 -29.2 -0.9 -29.2 c -8.7 -0.3 -17.8 -0.1 -26.5 -1.4 c 6.9 -22.3 0.3 -45.3 4 -67.8 c 2.7 -16.3 13.1 -25.3 29.7 -25.3 c 15.9 0 27.7 7.4 31.1 23.4 c 4.8 23.2 -2 46.9 5.4 69.9 c -5.5 1.4 -11.3 1.6 -17 1.8 c -2.8 0.1 -5.7 0.2 -8.5 0.3 c -1.8 0.1 -1.2 3.2 -1.3 4.7 c -1 10.9 -5 28.1 3.7 36.9 c -9.6 6 -20 14.3 -26.2 23.9 z M 399.8 352 H 480 c 0 -19.5 -13.1 -34.3 -30.7 -40.1 c -8.1 -2.6 -23.7 -3.4 -29.5 -10.4 c -2.9 -3.5 -1.3 -12.4 -1 -16.6 c 4.4 0.4 9.2 -0.3 13.7 -0.9 c 4.1 -0.6 8.1 -1.4 12 -2.8 c 1.8 -0.7 3.6 -1.4 5.3 -2.4 c 3.9 -2.3 2.1 -2.7 0.1 -6.1 c -10.9 -18.3 -6 -41.5 -6.5 -61.6 c -0.4 -16.7 -4.8 -35 -20 -44.4 c -13.7 -8.5 -34 -8.8 -48.7 -2.8 c -42.4 17 -17.4 73.2 -31.9 105.4 c -2.5 5.4 -6.1 7.3 0.2 10.5 c 3.5 1.8 7.3 3 11.1 3.9 c 5.8 1.4 11.8 2.2 17.8 2.4 c 1 0 0.3 12.6 0 13.9 c -1.1 4.9 -11.8 6.3 -15.8 7.4 c -4.1 1.1 -10.9 1.4 -12.9 5.7 c -3 6.4 9.9 4.8 13.1 5.4 c 10.3 1.9 19.4 7.6 27.4 14.1 c 5.9 4.8 13.9 11.6 16.1 19.4 z m -0.4 -27.1 c -5.1 -4.7 -10.4 -9.3 -16.3 -13 c 8.8 -8.8 4.7 -25.9 3.7 -36.9 c -0.6 -6.3 -2 -4.7 -8.3 -4.9 c -6 -0.2 -12.8 0.1 -18.5 -1.8 c 7.2 -22.3 1.3 -45.2 5 -67.9 c 2.8 -17.1 14.5 -25.5 31.5 -25.5 c 15.4 0 26 7.7 29.2 23 c 4.9 23.1 -2.6 47 4.5 70 c -8.5 1.3 -17.3 1 -25.9 1.3 c -2.1 0.1 -1.9 25.1 -1.7 27.3 c 0.7 11.7 6.1 18.8 17.2 23.3 c 12.1 4.9 31 3.6 38.4 15.9 h -44.7 c -7.1 0.1 -8.9 -6.1 -14.1 -10.8 c -5 -4.6 4 3.6 0 0 z" stroke-linecap="round"/>
</g>
</g>
</g>
</svg>